<svg width="113" height="70" viewBox="0 0 113 70" fill="none" xmlns="http://www.w3.org/2000/svg">
<g opacity="0.6">
<path d="M24.5 14.521V32.5834H42.5691V14.521H24.5ZM37.0992 27.2589C36.7714 27.7094 36.3003 28.0576 35.7881 28.2624C35.1325 28.5081 34.436 28.631 33.7394 28.6105H29.6626V18.4734H33.4731C34.5999 18.4734 35.4603 18.6987 36.0749 19.1492C36.6895 19.5998 36.9968 20.2551 36.9968 21.0947C37.0173 21.5453 36.8944 21.9753 36.669 22.344C36.4232 22.7126 36.0954 22.9993 35.6857 23.1836C36.2388 23.3474 36.71 23.6751 37.0583 24.1256C37.386 24.5762 37.5499 25.1291 37.5294 25.7025C37.5704 26.2554 37.4065 26.8084 37.0992 27.2589ZM34.5179 22.303C34.8047 22.0573 34.9686 21.7091 34.9481 21.32C34.9481 20.5213 34.395 20.1117 33.3092 20.1117H31.7522V22.6307H33.3092C33.8214 22.6511 34.2311 22.5283 34.5179 22.303ZM33.5551 24.2485H31.7318V26.9927H33.5346C34.1492 26.9927 34.6204 26.8698 34.9481 26.6445C35.2759 26.4193 35.4603 26.0506 35.4398 25.6411C35.4398 24.699 34.8047 24.228 33.5551 24.2485ZM47.0762 14.521V32.5834H65.1453V14.521H47.0762ZM59.6754 27.2589C59.3476 27.7094 58.8764 28.0576 58.3643 28.2624C57.7087 28.5081 57.0122 28.631 56.2951 28.6105H52.2388V18.4734H56.0493C57.176 18.4734 58.0365 18.6987 58.6716 19.1492C59.2862 19.5998 59.5935 20.2551 59.5935 21.0947C59.6139 21.5453 59.491 21.9753 59.2657 22.344C59.0198 22.7126 58.692 22.9993 58.2823 23.1836C58.8355 23.3474 59.3066 23.6751 59.6549 24.1256C59.9827 24.5762 60.1466 25.1291 60.1261 25.7025C60.1466 26.2554 59.9827 26.8084 59.6754 27.2589ZM57.0941 22.303C57.3809 22.0573 57.5448 21.7091 57.5243 21.32C57.5243 20.5213 56.9712 20.1117 55.8854 20.1117H54.3284V22.6307H55.8854C56.3976 22.6511 56.8073 22.5283 57.0941 22.303ZM56.1312 24.2485H54.3079V26.9927H56.1107C56.7253 26.9927 57.1965 26.8698 57.5243 26.6445C57.8521 26.4193 58.0365 26.0506 58.016 25.6411C58.016 24.699 57.4014 24.228 56.1312 24.2485ZM69.6523 32.5834H87.7215V14.521H69.6523V32.5834ZM82.6203 27.9757C82.1696 28.2214 81.6575 28.4057 81.1658 28.5286C80.5922 28.672 79.9981 28.7334 79.4244 28.7334C78.6869 28.7539 77.9289 28.631 77.2324 28.3852C76.6178 28.16 76.0442 27.8118 75.573 27.3613C75.1223 26.8903 74.7535 26.3374 74.5486 25.723C74.3028 25.0267 74.1799 24.2895 74.1799 23.5522C74.1594 22.815 74.3028 22.0982 74.5486 21.4224C74.7945 20.808 75.1427 20.2551 75.6139 19.7841C76.1056 19.3131 76.6792 18.9649 77.2938 18.7397C77.9904 18.4939 78.7484 18.371 79.4859 18.371C80.0185 18.371 80.5512 18.4325 81.0838 18.5349C81.5755 18.6373 82.0467 18.8216 82.4769 19.0468V21.0333C82.0877 20.7671 81.6575 20.5828 81.2068 20.4394C80.7356 20.2961 80.2439 20.2346 79.7522 20.2346C79.1376 20.2141 78.523 20.3575 77.9699 20.6237C77.4782 20.8695 77.089 21.2791 76.8431 21.7501C76.5563 22.303 76.4334 22.9174 76.4539 23.5522C76.4334 24.1666 76.5563 24.8014 76.8431 25.3544C77.089 25.8459 77.4782 26.235 77.9494 26.4807C78.5025 26.7469 79.0966 26.8903 79.7112 26.8698C80.7356 26.8698 81.7394 26.5831 82.6203 26.0506V27.9757Z" fill="#121212"/>
<path d="M52.2182 42.1676H44.7406V45.6081H51.3783V48.4342H44.7406V52.3252H52.6279V55.1513H41.3398V39.3416H52.2182V42.1676Z" fill="#121212"/>
<path d="M71.8854 39.3416H75.532C74.9174 42.0038 74.2618 44.6661 73.5653 47.3283C72.8687 49.9496 72.1517 52.5505 71.3937 55.1513H67.7881C66.7842 51.6084 65.8419 48.0246 64.92 44.4613C64.039 48.0451 63.0967 51.6084 62.0928 55.1513H58.4872C57.7292 52.5505 57.0122 49.9496 56.3156 47.3283C55.6191 44.6866 54.9635 42.0243 54.3489 39.3416H58.057C58.4257 41.3894 58.815 43.4373 59.2247 45.4852C59.6344 47.5331 60.0647 49.5401 60.5358 51.5265C61.5192 47.697 62.4616 43.8674 63.3425 40.0174H66.6613C67.5422 43.7855 68.4641 47.5331 69.4475 51.2808C69.8982 49.3148 70.3284 47.3283 70.7381 45.3624C71.1479 43.3554 71.5166 41.3485 71.8854 39.3416Z" fill="#121212"/>
<path d="M88.5 50.5025C88.5 51.5469 88.2336 52.448 87.7215 53.1852C87.2093 53.9225 86.4513 54.4959 85.4885 54.885C84.5051 55.2741 83.3374 55.4789 81.9648 55.4789C81.1043 55.4789 80.2234 55.3765 79.3835 55.1922C78.523 55.0079 77.7036 54.7007 76.9456 54.2911V51.2397C78.4616 52.1818 80.1824 52.6733 81.9648 52.6733C82.9686 52.6733 83.7266 52.5094 84.2593 52.1613C84.7509 51.8746 85.0582 51.3216 85.0377 50.7482C85.0377 50.2977 84.9148 49.9291 84.6485 49.6833C84.3617 49.3966 84.0134 49.1918 83.6242 49.069C83.153 48.9051 82.6818 48.7618 82.1901 48.6389C81.4116 48.4546 80.6331 48.2293 79.8956 47.9221C79.3015 47.6969 78.7279 47.3692 78.2157 46.9801C77.765 46.632 77.4168 46.1814 77.1709 45.6695C76.9251 45.096 76.8021 44.4612 76.8226 43.8468C76.8226 42.8434 77.0685 41.9832 77.5806 41.2665C78.1338 40.5088 78.8713 39.9353 79.7317 39.6077C80.6536 39.2186 81.7599 39.0138 83.0505 39.0138C83.8905 39.0138 84.71 39.1162 85.5294 39.3005C86.2874 39.4643 87.0249 39.7306 87.7215 40.0787V43.0891C87.0454 42.6795 86.2874 42.3723 85.5294 42.1676C84.7304 41.9423 83.8905 41.8399 83.071 41.8399C82.1696 41.8399 81.4731 42.0037 80.9814 42.3109C80.5102 42.5771 80.2234 43.0891 80.2439 43.642C80.2234 44.0107 80.3463 44.3588 80.5922 44.625C80.879 44.8913 81.2272 45.096 81.596 45.2189C82.0262 45.3828 82.5384 45.5261 83.1325 45.6695C83.8905 45.8538 84.587 46.079 85.2221 46.3043C85.8367 46.5091 86.4103 46.8163 86.943 47.1849C87.4347 47.533 87.8239 48.0041 88.0902 48.5365C88.3566 49.0485 88.5 49.7038 88.5 50.5025Z" fill="#121212"/>
<path d="M38.2055 39.3416V55.1513H34.7638C33.6165 53.3082 32.4488 51.4651 31.281 49.622C30.1338 47.8198 28.9661 46.0177 27.7983 44.236V55.1513H24.5V39.3416H27.9417C29.13 41.1232 30.2977 42.9049 31.4654 44.707C32.6332 46.5092 33.7804 48.3318 34.9277 50.1544V39.3416H38.2055Z" fill="#121212"/>
</g>
</svg>
