<svg width="149" height="70" viewBox="0 0 149 70" fill="none" xmlns="http://www.w3.org/2000/svg">
<g opacity="0.6">
<g clip-path="url(#clip0_2477_14833)">
<path d="M46.3293 19.7838C47.0347 19.7838 47.7436 19.7838 48.452 19.7789C48.4442 22.3135 48.4774 24.8487 48.4364 27.3833C48.4183 29.0193 47.728 30.7628 46.2285 31.5744C44.5339 32.4374 42.3852 32.4325 40.7238 31.4947C39.3095 30.6669 38.6221 28.9649 38.6603 27.3779C38.6681 24.8457 38.6627 22.3135 38.6657 19.7813H40.7258C40.7312 21.9735 40.7209 24.1633 40.7282 26.3555C40.7644 27.3628 40.7669 28.4591 41.3725 29.3177C42.1866 30.4385 43.8944 30.5441 45.0417 29.9131C46.0798 29.2869 46.3014 27.9811 46.3219 26.8657C46.3396 24.5057 46.3239 22.1438 46.3293 19.7838ZM55.5256 19.8302C57.3103 19.2999 59.3019 19.6218 60.8914 20.5724C60.8816 21.314 60.8816 22.0533 60.8816 22.793C59.5475 21.7984 57.7726 21.067 56.1161 21.6462C55.3999 21.8605 54.9312 22.7225 55.2761 23.4162C55.5594 24.0806 56.3299 24.2738 56.9395 24.5214C58.253 25.0443 59.7677 25.3252 60.7417 26.4352C61.9936 27.9474 61.6766 30.6395 59.8425 31.5593C57.779 32.6282 55.2003 32.2882 53.2219 31.1752C53.2194 30.4125 53.2194 29.6528 53.2116 28.8901C54.7008 30.0368 56.7668 30.7168 58.5906 30.0187C59.5852 29.6582 59.7114 28.1108 58.8098 27.5765C57.4106 26.7292 55.6925 26.5565 54.3505 25.5957C53.171 24.7474 52.8232 23.0659 53.3129 21.7416C53.6783 20.7808 54.5624 20.1135 55.5256 19.8302ZM74.6776 19.5984C77.4852 22.1746 80.216 24.8384 82.9723 27.4709V19.7813H85.0329V32.2187C82.2223 29.5496 79.4895 26.8011 76.6633 24.1466V31.9472C75.9965 31.9521 75.3317 31.9521 74.6673 31.9546C74.6707 27.8368 74.6502 23.72 74.6776 19.5984ZM90.4461 19.7789C92.9323 19.7789 95.4156 19.7916 97.8989 19.7711C97.914 20.3973 97.914 21.023 97.914 21.6492C96.1318 21.6492 94.3515 21.6462 92.5688 21.6492V24.5419C94.1583 24.5473 95.7453 24.5419 97.3348 24.5473V26.4122C95.7452 26.4145 94.1565 26.4145 92.5688 26.4122C92.5688 27.6353 92.5688 28.8622 92.5742 30.0857C94.3515 30.0779 96.1318 30.0857 97.9067 30.0804C97.9091 30.7247 97.9116 31.3709 97.9116 32.0152H90.4412C90.4461 27.9371 90.4388 23.8595 90.4461 19.7789ZM103.952 20.2578C105.884 19.14 108.353 19.4824 110.248 20.5132C110.284 21.2705 110.284 22.0298 110.282 22.7876C108.906 21.7573 107.053 21.0205 105.364 21.6956C104.406 22.0381 104.295 23.4832 105.166 23.9827C106.584 24.7968 108.319 24.9612 109.646 25.9611C111.428 27.2904 111.297 30.5079 109.259 31.5382C107.196 32.6204 104.591 32.3009 102.618 31.1571C102.618 30.4047 102.618 29.6528 102.605 28.9004C104.042 29.9277 105.872 30.6263 107.644 30.1474C108.298 29.9825 108.898 29.395 108.806 28.6739C108.819 28.1225 108.432 27.6382 107.948 27.4117C106.557 26.6901 104.915 26.4866 103.654 25.5106C102.007 24.2352 102.116 21.3116 103.952 20.2578ZM116.317 20.2994C118.234 19.14 120.743 19.4516 122.636 20.5103C122.644 21.2602 122.644 22.0073 122.649 22.7568C121.286 21.7265 119.426 21.0283 117.76 21.7084C116.831 22.0689 116.725 23.473 117.574 23.9827C119.027 24.8281 120.836 24.9612 122.165 26.0414C123.309 26.943 123.538 28.6147 123.095 29.9336C122.68 31.1077 121.497 31.7926 120.335 32.0431C118.553 32.4115 116.649 32.0818 115.065 31.1909C115.039 30.4258 115.039 29.6606 115.037 28.8955C116.536 30.0085 118.579 30.7217 120.4 30.0207C121.392 29.6601 121.544 28.1401 120.65 27.5888C119.212 26.6896 117.399 26.5614 116.051 25.4944C114.463 24.22 114.537 21.3718 116.317 20.2994ZM25.4621 19.7813C27.622 19.9075 29.8651 19.4638 31.955 20.1448C34.2759 20.8889 34.6056 24.5189 32.4883 25.6984C34.4178 26.4973 34.8605 29.233 33.5367 30.7477C32.7226 31.7163 31.3934 31.9736 30.1904 32.0098C28.6137 32.0358 27.0399 32.0098 25.4631 32.0177V19.7813M27.5266 21.6516C27.524 22.7233 27.524 23.7949 27.5266 24.8663C28.6342 24.8125 29.7834 25.0209 30.8651 24.7092C32.1713 24.3306 32.1816 22.1795 30.8832 21.7881C29.7883 21.5097 28.6421 21.7005 27.5266 21.6516ZM27.5266 26.6725C27.5217 27.8314 27.5242 28.9909 27.5266 30.1459C28.7986 30.0559 30.1645 30.3959 31.3675 29.8627C32.5602 29.2805 32.4521 27.2967 31.2026 26.851C30.0177 26.4817 28.7477 26.7532 27.5266 26.6725ZM66.7444 19.7813H68.807V32.0177H66.7444V19.7813ZM58.3 38.7797C60.2241 37.561 62.79 37.8991 64.6912 38.9988C64.6809 39.7356 64.6809 40.4724 64.6833 41.2086C63.2925 40.1916 61.3811 39.4059 59.7065 40.1862C58.8797 40.5805 58.7716 41.8089 59.5157 42.3422C61.0411 43.3108 63.0684 43.3573 64.3844 44.6816C65.265 45.5133 65.4118 46.84 65.1858 47.9736C64.923 49.1071 63.9338 49.952 62.8439 50.2729C60.9359 50.86 58.7946 50.5434 57.0789 49.5464C57.0843 48.7915 57.0867 48.0372 57.0789 47.2823C58.5294 48.3718 60.5 49.088 62.2827 48.4491C63.359 48.1604 63.5733 46.5069 62.5993 45.9658C61.1595 45.0666 59.3278 44.9536 58.0035 43.8406C56.5021 42.5716 56.6 39.8408 58.3 38.7797ZM33.6424 38.2645H35.7005C35.7054 42.2986 35.7062 46.3344 35.703 50.3717H33.6424V38.2645ZM41.5609 37.9813C44.302 40.5981 47.0367 43.2257 49.8018 45.8176C49.812 43.2775 49.8042 40.74 49.8067 38.2029C50.4916 38.1999 51.1786 38.199 51.8677 38.1999C51.8726 42.3294 51.8624 46.456 51.8726 50.5855C49.0777 47.9364 46.3371 45.2276 43.5632 42.555C43.55 45.1596 43.5632 47.7661 43.5579 50.3732H41.5614C41.5587 46.2412 41.5586 42.1106 41.5609 37.9813ZM70.5437 38.2645H72.6048V50.3717H70.5437V38.2645ZM78.5321 38.2645C80.1913 38.2645 81.852 38.2627 83.5144 38.2591C85.4023 38.2361 87.3523 39.2023 88.2749 40.8897C89.2666 42.6616 89.3307 44.8641 88.7152 46.773C88.0558 48.7788 86.0925 50.1976 84.0011 50.3331C82.1798 50.426 80.356 50.3463 78.5321 50.3717V38.2645ZM80.6549 40.1319V48.5014C82.1308 48.4476 83.7203 48.7284 85.0931 48.0381C86.414 47.3576 87.0177 45.8122 86.979 44.39C87.0328 42.9527 86.5255 41.3402 85.2017 40.6035C83.8128 39.8281 82.167 40.2302 80.6549 40.1319ZM93.3418 38.2645C95.8094 38.2622 98.2782 38.2622 100.748 38.2645C100.748 38.8878 100.745 39.511 100.745 40.1348C98.9631 40.1296 97.1822 40.1296 95.4024 40.1348V42.963C96.9894 42.9659 98.5781 42.9669 100.168 42.9659V44.7692C98.5789 44.7692 96.9884 44.7662 95.4024 44.7692V48.499C97.1827 48.5044 98.9654 48.499 100.748 48.5019V50.3693H93.3418V38.2645ZM106.804 38.2621C108.476 38.2772 110.148 38.2464 111.817 38.2723C113.236 38.3081 114.736 39.1251 115.144 40.557C115.51 41.8016 115.422 43.2775 114.623 44.3411C114.134 44.9771 113.341 45.2173 112.599 45.4208C114.046 47.0561 115.483 48.7032 116.908 50.3619C116.093 50.3776 115.281 50.3776 114.472 50.3619C113.091 48.7211 111.683 47.1032 110.296 45.4727C109.837 45.4756 109.381 45.4756 108.926 45.4756C108.921 47.1062 108.923 48.7367 108.923 50.3678C108.215 50.3701 107.507 50.3701 106.798 50.3678V38.2582M108.923 40.0683C108.919 41.2688 108.921 42.4694 108.923 43.6694C110.024 43.6078 111.174 43.8421 112.239 43.4997C113.555 42.9713 113.584 40.8579 112.288 40.2948C111.222 39.8873 110.045 40.127 108.929 40.0702" fill="#121212"/>
</g>
</g>
<defs>
<clipPath id="clip0_2477_14833">
<rect width="100" height="31.72" fill="white" transform="translate(24.5 19.14)"/>
</clipPath>
</defs>
</svg>
