<svg width="149" height="70" viewBox="0 0 149 70" fill="none" xmlns="http://www.w3.org/2000/svg">
<g opacity="0.6">
<path fill-rule="evenodd" clip-rule="evenodd" d="M35.1083 38.5755V31.5916C35.1083 29.6277 33.7689 27.8161 30.1667 27.8161H24.5V42.3511H30.1667C33.7689 42.3511 35.1083 40.5177 35.1083 38.5755ZM31.8139 37.6805C31.8139 38.8155 31.4189 39.4483 29.7711 39.4483H27.7944V30.7188H29.7711C31.4189 30.7188 31.8139 31.3516 31.8139 32.4866V37.6805Z" fill="#121212"/>
<path fill-rule="evenodd" clip-rule="evenodd" d="M45.2467 27.8161H40.8539L36.395 42.3511H39.8211L40.6122 39.5138H45.51L46.3005 42.3511H49.7272L45.2467 27.8161ZM43.05 30.6972L44.7194 36.7861H41.3589L43.05 30.6972Z" fill="#121212"/>
<path fill-rule="evenodd" clip-rule="evenodd" d="M59.7717 42.3511H63.6811L60.145 37.375C61.6167 36.7638 62.2756 35.5416 62.2756 33.7305V31.9411C62.2756 29.2127 60.9578 27.8161 57.3994 27.8161H51.3156V42.3511H54.6106V37.8333H56.5433L59.7717 42.3511ZM58.9811 33.4033C58.9811 34.4944 58.6294 34.9961 57.2239 34.9961H54.6106V30.7188H57.2239C58.5633 30.7188 58.9811 31.155 58.9811 32.2466V33.4033Z" fill="#121212"/>
<path fill-rule="evenodd" clip-rule="evenodd" d="M65.3583 42.3511H68.6528V27.8161H65.3583V42.3511ZM73.3311 42.3511H77.0428L72.6283 34.9305L76.7355 27.8161H73.0239L69.07 34.9305L73.3311 42.3511Z" fill="#121212"/>
<path fill-rule="evenodd" clip-rule="evenodd" d="M95.9767 42.3511H100.029V27.8161H96.8966V37.8333L92.0994 27.8161H88.0694V42.3511H91.2011V32.7916L95.9767 42.3511Z" fill="#121212"/>
<path fill-rule="evenodd" clip-rule="evenodd" d="M112.05 42.3511V39.4483H106.142V36.2839H111.589V33.3811H106.142V30.7188H112.05V27.8161H102.847V42.3511H112.05Z" fill="#121212"/>
<path fill-rule="evenodd" clip-rule="evenodd" d="M124.5 30.7188V27.8161H113.342V30.7188H117.274V42.3511H120.568V30.7188H124.5Z" fill="#121212"/>
<path fill-rule="evenodd" clip-rule="evenodd" d="M62.2661 15.4094C73.0961 15.4094 81.875 24.1805 81.875 35C81.875 45.8194 73.0961 54.59 62.2661 54.59C55.0317 54.59 48.7133 50.6755 45.3144 44.8522H41.6289C45.3128 52.5033 53.1539 57.7855 62.2311 57.7855C74.8466 57.7855 85.0739 47.5839 85.0739 35C85.0739 22.4155 74.8466 12.2144 62.2311 12.2144C53.3605 12.2144 45.6705 17.2583 41.8866 24.6289H45.6289C49.0939 19.0927 55.2489 15.4094 62.2661 15.4094Z" fill="#121212"/>
</g>
</svg>
