<svg width="129" height="70" viewBox="0 0 129 70" fill="none" xmlns="http://www.w3.org/2000/svg">
<g opacity="0.6">
<g clip-path="url(#clip0_2477_14835)">
<path d="M27.0198 25.137H44.2255L43.4957 30.7656H26.32L27.0198 25.137ZM26.0101 32.8351H43.2358L42.7059 37.4139H31.9387L31.6587 39.6034H42.4459L41.7761 44.832H24.5105L26.0101 32.8351ZM44.5054 30.7656C44.5054 30.7656 44.6254 28.8461 45.1053 27.8463C45.5551 26.9066 46.155 26.2267 47.1648 25.6569C47.7647 25.337 48.8344 25.137 48.8344 25.137H79.8266C79.8266 25.137 81.1262 25.157 81.6861 25.387C82.2859 25.6369 83.1557 26.0068 83.6156 27.1265C84.0655 28.1962 83.9756 28.5462 83.9756 29.6159C83.9756 30.6656 83.9455 30.7656 83.9455 30.7656H44.5054ZM44.2255 32.8851H60.0816C60.0816 32.8851 61.4912 32.8851 62.141 33.275C62.8209 33.7248 63.1308 34.2747 63.3307 35.1445C63.5206 36.0143 62.9908 40.4031 62.6809 41.4729C62.341 42.5226 61.9411 43.5124 60.3014 44.3322C58.8319 45.082 56.6023 44.832 56.6023 44.832H42.9058L43.7157 39.6034H56.5425L56.8024 37.3839H47.9546C47.9546 37.3839 46.5151 37.5839 45.1654 36.4143C44.3457 35.7144 44.2556 34.6447 44.2056 34.1748C44.1455 33.9048 44.2255 32.8851 44.2255 32.8851ZM64.8503 32.8851H83.5555C83.5555 32.8851 83.3856 35.0445 82.8757 35.8143C82.3657 36.6141 81.9158 37.044 81.0661 37.2339C80.1963 37.4338 78.8966 37.4338 78.8966 37.4338H70.7588L69.909 44.8319H63.3806L64.8503 32.8851ZM84.8253 30.8156H104.26C104.26 30.8156 104.63 29.116 104.43 28.0463C104.23 26.9765 103.75 26.2567 102.961 25.7369C101.921 25.007 100.021 25.137 100.051 25.137H85.615L84.8253 30.8156ZM84.5754 32.8851H91.0136L89.544 44.832H83.1556L84.5754 32.8851ZM97.512 32.935H103.89L102.421 44.832H96.0725L97.512 32.935Z" fill="#121212"/>
</g>
</g>
<defs>
<clipPath id="clip0_2477_14835">
<rect width="80" height="19.744" fill="white" transform="translate(24.5 25.1281)"/>
</clipPath>
</defs>
</svg>
