<svg width="199" height="70" viewBox="0 0 199 70" fill="none" xmlns="http://www.w3.org/2000/svg">
<g opacity="0.6">
<path fill-rule="evenodd" clip-rule="evenodd" d="M28.1007 39.2775C28.1007 40.1234 28.3424 40.3167 29.889 40.3167V40.8483H24.5V40.3167C25.5632 40.3167 25.9259 40.2199 25.9259 39.3017V30.6744C25.9259 29.756 25.5632 29.6593 24.5 29.6593V29.1276H33.5382L33.5866 32.3417H33.1516C32.9098 29.9252 32.3057 29.7078 30.0583 29.7078H28.0766V34.4927H29.6715C31.194 34.4927 31.2907 34.251 31.4115 33.0427H31.8466V36.5469H31.4115C31.2907 35.3386 31.194 35.1209 29.6715 35.1209H28.0766V39.2776H28.1009L28.1007 39.2775ZM34.6981 40.8483V40.3167C35.7615 40.3167 36.1241 40.2199 36.1241 39.3017V30.6744C36.1241 29.756 35.7615 29.6593 34.6981 29.6593V29.1276H39.7248V29.6594C38.6614 29.6594 38.2989 29.7561 38.2989 30.6745V39.3018C38.2989 40.2201 38.6614 40.3168 39.7248 40.3168V40.8484H34.698L34.6981 40.8483ZM51.1312 41.0416L43.108 31.1093V39.2534C43.108 40.196 43.7604 40.3409 44.8722 40.3409V40.8726H40.6189V40.3409C41.7305 40.3409 42.3348 40.196 42.3348 39.2534V30.2151C41.8272 29.6835 41.4647 29.6593 40.6189 29.6593V29.1276H44.3889L50.5271 37.0301V30.7226C50.5271 29.7802 49.8746 29.6352 48.763 29.6352V29.1276H53.0403V29.6594C51.9288 29.6594 51.3245 29.8044 51.3245 30.747V41.0419H51.1312V41.0416ZM56.8587 40.8483H52.6295V40.3167C53.7412 40.3167 54.2487 40.1716 54.6111 39.205L58.4295 29.0068H59.4927L63.601 39.2775C63.9635 40.1959 64.1326 40.2924 64.9785 40.2924V40.8241H60.0728V40.2924C61.5711 40.2924 61.7161 40.1716 61.3534 39.2775L60.1453 36.1601H56.4719L55.3846 39.1808C55.0463 40.0991 55.5779 40.2924 56.8829 40.2924V40.8483H56.8587ZM56.6895 35.5558H59.8793L58.212 31.351L56.6895 35.5558ZM75.9983 41.0416L67.9993 31.1093V39.2534C67.9993 40.196 68.6517 40.3409 69.7634 40.3409V40.8726H65.6067V40.3409C66.6218 40.3409 67.2259 40.196 67.2259 39.2534V30.2393C66.646 29.7077 66.211 29.6593 65.2444 29.6593V29.1276H69.2558L75.394 37.0301V30.7226C75.394 29.7802 74.7416 29.6352 73.6301 29.6352V29.1276H77.8833V29.6594C76.7717 29.6594 76.1675 29.8044 76.1675 30.747V41.0419H75.9983V41.0416ZM87.864 29.1036H88.154L88.3231 32.6075L87.8882 32.6318C87.5981 30.6261 86.5349 29.5627 84.5774 29.5627C82.4024 29.5627 80.7591 31.4235 80.7591 34.2751C80.7591 37.9242 83.0548 40.0024 85.4714 40.0024C86.5107 40.0024 87.4531 39.7125 88.3714 38.7218L88.7098 39.06C87.9605 40.1234 86.4865 41.0175 84.5047 41.0175C81.5566 41.0175 78.56 38.7942 78.56 35.0725C78.5598 31.4718 81.2906 28.9343 84.6016 28.9343C86.1724 28.9343 86.994 29.611 87.4289 29.611C87.6222 29.611 87.7672 29.4419 87.864 29.1036ZM89.6764 40.8483V40.3167C90.7397 40.3167 91.1023 40.2199 91.1023 39.3017V30.6744C91.1023 29.756 90.7397 29.6593 89.6764 29.6593V29.1276H94.703V29.6594C93.6397 29.6594 93.2771 29.7561 93.2771 30.6745V39.3018C93.2771 40.2201 93.6397 40.3168 94.703 40.3168V40.8484H89.6764V40.8483ZM99.4396 40.8483H95.5004V40.3167C96.3705 40.3167 96.8296 40.1716 97.1922 39.205L101.01 29.0068H102.074L106.182 39.2775C106.544 40.1959 106.714 40.2924 107.559 40.2924V40.8241H102.654V40.2924C104.152 40.2924 104.297 40.1716 103.935 39.2775L102.726 36.1601H99.0531L97.9655 39.1808C97.6272 40.0991 98.159 40.2924 99.464 40.2924V40.8483H99.4397H99.4396ZM99.2704 35.5558H102.46L100.817 31.351L99.2704 35.5558ZM108.381 40.8483V40.3167C109.444 40.3167 109.807 40.2199 109.807 39.3017V30.6744C109.807 29.756 109.444 29.6593 108.381 29.6593V29.1276H113.383V29.6594C112.32 29.6594 111.982 29.7561 111.982 30.6745V39.3744C111.982 40.1476 112.369 40.2443 112.997 40.2443H113.601C115.873 40.2443 116.598 39.906 117.226 37.3202L117.661 37.3685L117.298 40.8244H108.381V40.8486V40.8483ZM132.741 29.1276L132.789 32.535H132.354C132.113 30.0218 131.508 29.7078 129.261 29.7078H128.536V39.2776C128.536 40.196 128.874 40.3168 130.324 40.3168V40.8484H124.573V40.3168C126.022 40.3168 126.385 40.1718 126.385 39.2776V29.7077H125.66C123.413 29.7077 122.808 30.0218 122.567 32.535H122.132L122.18 29.1276H132.741ZM133.876 40.8484V40.3167C134.94 40.3167 135.302 40.2199 135.302 39.3017V30.6744C135.302 29.756 134.94 29.6593 133.876 29.6593V29.1276H138.903V29.6594C137.84 29.6594 137.477 29.7561 137.477 30.6745V39.3018C137.477 40.2201 137.84 40.3168 138.903 40.3168V40.8484H133.876ZM154.031 29.1275V29.6594C152.968 29.6594 152.509 29.7078 152.605 30.6503L153.524 39.3501C153.62 40.2443 153.959 40.3409 155.022 40.3409V40.8726H150.02V40.3409C151.059 40.3409 151.421 40.2443 151.349 39.3501L150.406 30.215L146.709 41.0657H146.564L142.939 30.191L142.069 39.3258C141.972 40.2442 142.6 40.3407 143.664 40.3407V40.8725H139.749V40.3407C140.812 40.3407 141.175 40.1716 141.247 39.3258L142.165 30.6259C142.262 29.7077 141.803 29.6352 140.739 29.6352V29.1276H144.848L147.313 37.1266L149.971 29.1276H154.031L154.031 29.1275ZM163.384 36.5466H162.949C162.828 35.3383 162.731 35.1207 161.209 35.1207H159.42V39.3741C159.42 40.1473 159.807 40.244 160.435 40.244H161.402C163.673 40.244 164.398 39.9057 165.027 37.3199L165.462 37.3682L165.051 40.8241H155.82V40.2923C156.883 40.2923 157.245 40.1957 157.245 39.2773V30.6744C157.245 29.756 156.883 29.6593 155.819 29.6593V29.1276H164.688L164.737 32.0517H164.302C164.036 29.9734 163.504 29.7318 161.184 29.7318H159.444V34.4924H161.233C162.755 34.4924 162.852 34.2508 162.973 33.0426H163.408V36.5467H163.383L163.384 36.5466ZM172.712 38.4315C172.712 37.3682 172.035 36.8366 170.875 36.184L169.014 35.2174C167.613 34.4682 166.791 33.6466 166.791 32.1725C166.791 30.336 168.362 28.9343 170.416 28.9343C171.818 28.9343 172.543 29.611 172.953 29.611C173.219 29.611 173.34 29.4419 173.461 29.1036H173.799L173.968 32.3902L173.533 32.4144C173.292 30.8192 172.156 29.5867 170.561 29.5867C169.353 29.5867 168.555 30.3118 168.555 31.3268C168.555 32.4385 169.401 32.8976 170.343 33.4051L171.938 34.2508C173.437 35.0725 174.5 35.8942 174.5 37.465C174.5 39.5433 172.712 41.0175 170.488 41.0175C168.918 41.0175 168.144 40.2682 167.733 40.2682C167.468 40.2682 167.323 40.51 167.202 40.8725H166.863L166.622 37.3924L167.057 37.3442C167.395 39.5191 168.893 40.4132 170.392 40.4132C171.648 40.389 172.712 39.8333 172.712 38.4318L172.712 38.4315Z" fill="#121212"/>
</g>
</svg>
