<svg width="169" height="70" viewBox="0 0 169 70" fill="none" xmlns="http://www.w3.org/2000/svg">
<g opacity="0.6">
<g clip-path="url(#clip0_2477_14825)">
<path d="M33.461 35.2665H38.1774C39.8178 35.2255 40.7201 36.825 40.8021 37.2351V31.9036C40.7201 32.1496 39.8589 33.7081 38.1774 33.7081H33.461V27.6794H39.3257C40.556 27.6384 41.6634 28.9097 42.1965 30.1401V26.1619H28.8677C29.2779 26.285 30.6722 26.9002 30.6312 28.6226V41.5003C30.7133 42.5256 29.893 43.5509 28.8677 43.7969H35.2245C34.8964 43.7559 33.502 43.1408 33.461 41.4183V35.2665ZM125.983 43.879C126.393 43.7969 127.747 43.1818 127.747 41.4183V28.5816C127.788 26.9412 126.393 26.285 125.983 26.1209H139.23V30.017C138.82 28.7867 137.754 27.5563 136.523 27.5563H130.618V33.7081H135.293C136.933 33.7491 137.836 32.1496 137.918 31.8626V37.1941C137.877 36.825 136.933 35.2255 135.293 35.2665H130.577V41.0082C130.618 41.6233 130.659 42.6486 133.324 42.5256H134.76C137.795 42.5666 138.861 41.3773 140.091 39.2446L139.107 43.838L125.983 43.879ZM86.8582 43.879C86.4891 43.7559 85.0947 43.1408 85.0947 41.4183V27.6794H87.9655C88.6627 27.6384 90.5492 28.9097 90.9183 30.1401H91.1234L90.1801 25.7108C90.0571 25.9979 88.7447 26.1209 88.3346 26.1209H79.107C78.6969 26.1619 77.3435 25.9569 77.2614 25.7108L76.2362 30.0991H76.4412C76.8513 28.8687 78.6969 27.6384 79.3941 27.6384H82.2649V41.3362C82.278 41.8774 82.1123 42.4077 81.7935 42.8452C81.4747 43.2826 81.0205 43.6027 80.5014 43.7559L86.8582 43.879ZM51.8753 25.8339C46.5027 25.7928 42.1965 29.935 42.1145 35.0615C42.0325 40.1879 46.5027 44.2481 51.8753 44.2891C57.2478 44.3301 61.554 40.1879 61.472 35.0615C61.4181 32.5668 60.378 30.1951 58.5794 28.4657C56.7807 26.7362 54.3701 25.7899 51.8753 25.8339Z" fill="#121212"/>
<path d="M51.8753 43.0587C48.3483 43.0177 45.5595 39.4497 45.4774 35.0615C45.3954 30.6732 48.3483 27.0232 51.8753 27.0232C55.4023 27.0232 58.191 30.5912 58.191 35.0615C58.191 39.5317 55.3202 43.0177 51.8753 43.0587Z" fill="white"/>
<path d="M75.1289 41.8284L71.5198 35.3486C73.7755 34.7334 75.4159 33.0519 75.3339 31.0014C75.4159 28.3766 73.9805 26.162 69.5513 26.162H60.9388C61.349 26.326 62.7023 26.9002 62.7023 28.6227V41.5003C62.7023 42.5256 61.9641 43.5509 60.8978 43.797H67.2546C66.9265 43.756 65.5732 43.1408 65.4911 41.4183V35.7587H68.444L72.8322 43.756H77.4255C76.3182 43.5509 75.58 42.5666 75.1289 41.8284Z" fill="#121212"/>
<path d="M68.772 34.5284H65.4911V27.3513H68.772C69.7227 27.3722 70.6285 27.7592 71.3009 28.4315C71.9732 29.1039 72.3602 30.0097 72.3811 30.9603C72.3401 32.9289 70.7406 34.4873 68.772 34.4873V34.5284Z" fill="white"/>
<path d="M104.739 38.3424C104.698 40.8852 102.689 42.6487 100.146 42.6076C97.6032 42.5666 95.6346 41.2132 95.6346 38.7526L95.5116 28.5817C95.5526 26.9412 96.947 26.285 97.2751 26.121H91.0003C91.2874 26.244 92.6408 26.8592 92.6408 28.5817V38.8346C92.6818 42.5256 95.7167 44.1661 99.4487 44.1661C103.181 44.1661 106.216 42.5256 106.257 38.8346L106.175 28.5817C106.216 26.9412 107.61 26.285 107.938 26.121H102.894C103.304 26.244 104.698 26.8592 104.657 28.5817L104.739 38.3424ZM122.374 38.1374L122.292 28.5817C122.292 26.9412 120.939 26.326 120.529 26.121H125.573C125.245 26.244 123.851 26.8592 123.81 28.5817L123.933 43.838H123.112L111.629 30.0171L111.506 41.4183C111.547 43.1408 112.942 43.756 113.27 43.879H108.225C108.635 43.797 109.989 43.1818 109.989 41.4183L110.112 28.5817C110.071 27.7614 109.538 26.5311 108.594 26.121H112.449L122.374 38.1374Z" fill="#121212"/>
</g>
</g>
<defs>
<clipPath id="clip0_2477_14825">
<rect width="120" height="60" fill="white" transform="translate(24.5 5)"/>
</clipPath>
</defs>
</svg>
