<svg width="149" height="70" viewBox="0 0 149 70" fill="none" xmlns="http://www.w3.org/2000/svg">
<g opacity="0.6">
<path d="M47.2138 36.1015C47.5528 35.932 47.9257 35.7286 48.2647 35.5591C48.4003 35.4913 48.8749 35.3218 48.9428 35.1862C48.9767 35.1184 48.9428 34.915 48.9428 34.8133V33.9996V28.2025V22.541V21.7952C48.9428 21.7613 48.9767 21.524 48.9428 21.4901C48.9088 21.4562 48.6376 21.4901 48.6037 21.4901H47.8579C47.5867 21.4901 47.6206 21.524 47.4511 21.7274C46.807 22.5749 46.1629 23.4225 45.5187 24.3039C45.2136 24.7107 44.9085 25.0836 44.6373 25.4904C44.4339 25.7617 44.4339 25.7956 44.061 25.7956L44.1627 23.5581C44.1966 23.0157 44.1966 22.4732 44.2305 21.9308C44.2305 21.7274 44.2644 21.524 44.2644 21.3206C44.2644 21.2528 44.2305 21.0494 44.2644 21.0155C44.3322 20.9138 44.9424 20.9816 45.1119 20.9816H57.791C57.8588 20.9816 58.1639 20.9477 58.2317 20.9816C58.2995 21.0155 58.2656 21.2189 58.2656 21.3206C58.2995 21.7613 58.2995 22.2359 58.3334 22.6766C58.3673 23.6598 58.4012 24.609 58.469 25.5921V25.7956C58.2995 25.7956 58.1639 25.8295 58.0283 25.7278C57.8927 25.626 57.791 25.4226 57.6893 25.287C57.2824 24.7446 56.8756 24.1683 56.4349 23.6259L55.2145 21.9986C55.1467 21.8969 55.045 21.6596 54.9094 21.5918C54.8077 21.524 54.6042 21.5579 54.4686 21.5579H53.9262C53.8584 21.5579 53.5872 21.524 53.5194 21.5579C53.4855 21.5918 53.5194 21.5918 53.4855 21.6596C53.4177 21.9308 53.4855 22.2698 53.4855 22.541V34.3386C53.4855 34.576 53.4177 34.915 53.4855 35.1523C53.5533 35.3896 54.0957 35.5591 54.333 35.6608C54.5703 35.7964 54.9772 35.8981 55.1806 36.1015C55.2484 36.1693 55.3162 36.5083 55.2484 36.61C55.2145 36.6439 55.045 36.61 55.0111 36.61H47.5528C47.485 36.61 47.2477 36.6439 47.2138 36.61C47.1799 36.4744 47.2138 36.2032 47.2138 36.1015ZM59.7911 35.4913V30.5417V22.4393V21.1172C59.7911 20.9138 59.8589 20.6087 59.7911 20.4053C59.7233 20.168 59.3165 20.1341 59.0792 20.0324C58.9436 19.9985 58.5029 19.8967 58.4351 19.7611V19.4899H58.5368C58.6724 19.4221 58.9436 19.4221 59.1131 19.3882C59.4182 19.3204 59.7233 19.2865 59.9945 19.2187C60.6726 19.0831 61.3845 18.9475 62.0625 18.8458C62.4693 18.778 62.8761 18.6763 63.283 18.6085C63.3847 18.6085 63.7915 18.5407 63.8254 18.6085C63.8593 18.6424 63.8254 18.778 63.8254 18.8119V25.8295C65.1136 24.5412 67.3511 23.8293 69.1479 24.27C70.7073 24.6429 71.2158 26.1007 71.2158 27.5923C71.2497 29.4908 71.2158 31.3553 71.2158 33.2538V34.7794C71.2158 34.9489 71.148 35.3557 71.2158 35.5252C71.2497 35.593 71.3853 35.6269 71.4531 35.6947C71.6904 35.8303 71.9617 35.9659 72.199 36.1015C72.2329 36.1354 72.3346 36.1693 72.3346 36.2032C72.3685 36.2371 72.3685 36.5422 72.3346 36.5761C72.3007 36.6439 72.3007 36.61 72.199 36.61C71.8261 36.6778 71.4192 36.61 71.0802 36.61H66.1985C66.1646 36.61 65.995 36.6439 65.9611 36.61C65.9272 36.5761 65.9272 36.2032 65.9611 36.1693C66.0628 36.0337 66.4697 35.8981 66.6053 35.7964C66.707 35.7286 67.0121 35.6269 67.0799 35.5252C67.1477 35.4235 67.0799 35.0506 67.0799 34.9489V33.5589C67.0799 31.5927 67.1138 29.5925 67.0799 27.6262C67.0799 27.0499 66.9782 26.3719 66.4019 26.0668C66.0967 25.8973 65.6899 25.8634 65.3509 25.8634C65.0797 25.8634 64.8085 25.9312 64.5712 25.999C64.3678 26.0668 63.9949 26.2024 63.8593 26.3719C63.7576 26.5075 63.8254 26.7109 63.8254 26.8804V34.8811C63.8254 35.0506 63.7576 35.3896 63.8254 35.5252C63.8593 35.593 63.9949 35.6608 64.0966 35.6947C64.3339 35.8303 64.639 35.9659 64.8763 36.1015C64.9102 36.1354 64.978 36.1354 64.978 36.1693C65.0119 36.2032 65.0119 36.5083 64.978 36.5422C64.9441 36.5761 64.9102 36.5761 64.8424 36.5761C64.4695 36.61 64.0627 36.5761 63.6898 36.5761H58.808C58.7741 36.5761 58.6046 36.61 58.5707 36.5761C58.5368 36.5422 58.5707 36.2032 58.6046 36.1354C58.7063 35.9998 59.0792 35.8642 59.2148 35.7964C59.4521 35.6947 59.6216 35.593 59.7911 35.4913ZM75.8942 30.8129C75.962 32.3046 76.4366 33.9657 77.7927 34.7794C78.5046 35.1862 79.386 35.3218 80.1996 35.254C81.1828 35.1523 81.9964 34.6777 82.8439 34.2369C82.8439 34.3726 82.8778 34.6099 82.8439 34.7455C82.7761 34.8811 82.6066 35.0506 82.5049 35.1523C82.3693 35.2879 82.1998 35.4574 82.0303 35.593C81.454 36.0676 80.8099 36.4066 80.1318 36.6439C78.8436 37.0846 77.3519 37.0507 76.0298 36.7117C74.9789 36.4405 74.0296 35.932 73.3177 35.1184C72.6058 34.3047 72.199 33.2538 72.0295 32.169C71.6565 29.8298 72.0973 27.1516 74.0296 25.5921C75.7247 24.2361 78.4368 23.9649 80.437 24.7785C82.8778 25.7617 83.2847 28.5415 83.2847 30.8468H76.8095C76.5044 30.8129 76.1993 30.8129 75.8942 30.8129ZM75.8264 30.2366C76.5044 30.2027 77.1824 30.1688 77.8944 30.101C78.3012 30.0671 78.7419 30.0671 79.1487 30.0332C79.2165 30.0332 79.386 30.0332 79.4538 29.9993C79.5555 29.9315 79.4877 29.2535 79.4877 29.1179C79.4538 27.8974 79.4199 26.4058 78.708 25.3548C78.1995 24.609 77.4198 24.7446 76.9451 25.4226C75.962 26.7448 75.8264 28.7111 75.8264 30.2366ZM24.5 42.6105C24.5 40.7121 24.8729 38.7458 25.9238 37.1524C26.9409 35.593 28.5681 34.576 30.331 34.0674C32.4668 33.4572 34.8399 33.525 37.0434 33.9318C37.5181 34.0335 37.9927 34.1352 38.4334 34.2708C38.5012 34.3047 38.8063 34.3726 38.8402 34.4404V34.5421C38.9419 34.9489 38.8741 35.4574 38.8741 35.8642C38.908 36.9151 38.908 38 38.9419 39.0509C38.8063 39.0509 38.569 39.0848 38.4673 39.0509C38.3995 39.017 38.3317 38.8475 38.2978 38.7797C38.0266 38.3729 37.7554 37.9661 37.5181 37.5254C36.9417 36.61 36.3315 35.6947 35.7552 34.7794C35.4501 34.2708 34.6026 34.2708 34.0601 34.2708C33.4499 34.2708 32.8397 34.3726 32.3312 34.6777C31.1785 35.3896 30.6361 36.7795 30.331 38.0339C29.8564 40.034 29.8903 42.1359 29.992 44.17C30.0937 45.7294 30.2293 47.3906 30.8395 48.8145C31.2124 49.6959 31.8566 50.4756 32.8397 50.679C33.1448 50.7468 33.4499 50.7468 33.7889 50.7129C33.9923 50.679 34.7043 50.6451 34.806 50.4417C34.8399 50.3739 34.806 50.2044 34.806 50.1366V49.5603V45.9668V44.5768C34.806 44.3395 34.8738 44.2378 34.6704 44.1022C34.433 43.9666 34.1618 43.831 33.9245 43.6615C33.755 43.5598 33.416 43.4581 33.3143 43.3225C33.2465 43.2547 33.2126 42.8817 33.2804 42.8139C33.3143 42.7461 33.3143 42.78 33.416 42.78C33.7211 42.7122 34.1279 42.78 34.433 42.78H39.6877C40.0267 42.78 40.3997 42.7461 40.7387 42.78H40.8743C40.9082 42.8139 40.9082 43.2886 40.8743 43.3564C40.8065 43.4581 40.4675 43.5937 40.3319 43.6615C40.0945 43.7971 39.8233 43.9327 39.586 44.1022C39.3148 44.2378 39.3487 44.2378 39.3487 44.5429V50.0688C39.3487 50.1366 39.3826 50.3061 39.3487 50.3739C39.2809 50.5434 38.569 50.6451 38.3656 50.7129C37.7893 50.8824 37.179 51.018 36.5688 51.1197C35.3823 51.3231 34.1957 51.3909 33.0092 51.357C31.1107 51.2892 29.1106 50.8824 27.5511 49.7298C26.1951 48.7467 25.3136 47.255 24.9068 45.6277C24.6017 44.6785 24.5 43.6276 24.5 42.6105ZM40.1284 39.5255C40.1284 39.4577 40.0945 39.1865 40.1284 39.1526C40.1623 39.1187 40.1962 39.1526 40.2301 39.1187C40.4336 39.017 40.7048 39.017 40.9421 38.9831C41.7218 38.8475 42.5015 38.7119 43.3152 38.5763C43.9254 38.4746 44.5356 38.339 45.1119 38.2712C45.2814 38.2373 45.4848 38.2373 45.6543 38.3051C45.8238 38.339 45.756 38.3051 45.7899 38.4407C45.8577 38.8475 45.7899 39.3221 45.7899 39.7289V46.8143C45.7899 47.6618 45.5526 49.2213 46.3663 49.7298C46.7731 50.001 47.3494 50.001 47.824 49.8993C48.1969 49.8315 48.9089 49.5603 49.0445 49.1535C49.0784 49.0518 49.0445 48.9162 49.0445 48.8145V48.1025V43.3903V41.2206V40.5087C49.0445 40.4409 49.0784 40.2375 49.0445 40.1697C48.9428 40.0679 48.6037 39.9662 48.502 39.9323C48.2986 39.8645 48.1291 39.7628 47.9257 39.695C47.8579 39.6611 47.6206 39.6272 47.5867 39.5594C47.5528 39.5255 47.5528 39.2204 47.5867 39.1865C47.6206 39.1526 47.6206 39.1865 47.6545 39.1526C47.824 39.0509 48.1291 39.0848 48.2986 39.0509C49.6886 38.8136 51.1124 38.5085 52.5363 38.3051C52.7058 38.2712 52.8753 38.2712 53.0448 38.3051C53.2143 38.339 53.1465 38.2712 53.1804 38.4407C53.2482 38.7797 53.1804 39.2543 53.1804 39.6272V49.3908C53.1804 49.4925 53.1465 49.662 53.1804 49.7976C53.2143 49.8993 53.1804 49.8654 53.3499 49.9332C53.6889 50.0688 54.0618 50.2383 54.4008 50.3739C54.5025 50.4078 54.5364 50.4078 54.5703 50.4756C54.6042 50.5434 54.6042 50.7807 54.5703 50.7807C54.5025 50.8485 54.1635 50.8146 54.0957 50.8485C53.3499 50.9502 52.6041 51.018 51.8244 51.1197C51.1463 51.1875 50.4683 51.2892 49.8242 51.357C49.6886 51.3909 49.553 51.3909 49.4174 51.357C49.3496 51.357 49.1462 51.357 49.1123 51.3231C49.0784 51.2553 49.1123 50.9841 49.1123 50.9163V50.34C49.1123 50.2383 49.1801 49.9671 49.1123 49.8654C49.0445 49.7637 48.9088 49.8993 48.8071 49.9671C48.5359 50.2044 48.2308 50.4417 47.9257 50.6112C46.807 51.2892 45.417 51.5944 44.1288 51.3231C43.1796 51.1197 42.3659 50.5773 41.9591 49.662C41.654 49.0179 41.5862 48.3059 41.5862 47.6279V43.5937V41.2884V40.5087C41.5862 40.4409 41.6201 40.2375 41.5862 40.1697C41.5184 40.0679 41.1116 39.9662 41.0099 39.8984C40.6709 39.7628 40.3997 39.6611 40.1284 39.5255ZM72.0973 38.2373C72.1651 38.2373 72.4702 38.2373 72.5041 38.3051C72.538 38.339 72.5041 38.5763 72.5041 38.6102V41.5935C72.5041 41.6952 72.4702 41.8647 72.5041 41.9664V42.0342C72.6397 42.1698 72.6736 41.7291 72.7075 41.6952C73.0126 40.4409 73.5889 38.9831 74.8772 38.4746C75.1145 38.3729 75.3518 38.339 75.5891 38.3051C75.7925 38.3051 76.3688 38.2373 76.4705 38.4068C76.5044 38.4746 76.4705 38.6441 76.4705 38.7119V42.1698C75.6569 42.0003 74.7416 42.0342 73.9618 42.2037C73.5889 42.2715 73.2499 42.3732 72.9109 42.5427C72.7414 42.6105 72.7075 42.5766 72.6736 42.7122C72.6397 42.8478 72.6736 43.0852 72.6736 43.2208V49.7637C72.6736 49.8315 72.6397 49.9332 72.6736 50.001C72.7414 50.1027 72.9787 50.1705 73.0804 50.2044C73.2499 50.3061 73.4533 50.4078 73.6228 50.5095C73.6906 50.5434 73.7923 50.5773 73.8262 50.6451C73.8601 50.679 73.8601 51.0858 73.8262 51.1197C73.7923 51.1536 73.5889 51.1197 73.5211 51.1197H67.8935C67.724 51.1197 67.4189 51.1875 67.2833 51.1197H67.1816C67.1477 51.0858 67.1816 50.7129 67.1816 50.679C67.2494 50.4756 67.6901 50.34 67.8935 50.2383C68.0291 50.1705 68.3003 50.0688 68.3681 49.9332C68.402 49.8654 68.3681 49.662 68.3681 49.5942V48.8823V40.1697C68.3681 40.1358 68.402 39.9662 68.3681 39.9323C68.3342 39.8984 68.1647 39.8645 68.0969 39.8645C67.8935 39.7967 67.6901 39.7289 67.4867 39.695C67.2833 39.6272 66.7748 39.5933 66.9443 39.2543C66.9782 39.1526 67.1138 39.1865 67.2494 39.1526C68.741 38.8814 70.1988 38.6102 71.6904 38.339C71.8261 38.2712 71.9617 38.2712 72.0973 38.2373ZM84.878 38.5424V35.8303V35.0506C84.878 34.9489 84.9119 34.7455 84.878 34.6438C84.8441 34.576 84.7085 34.5421 84.6068 34.5082C84.3356 34.4065 84.0644 34.3047 83.7593 34.203C83.5559 34.1352 83.4542 34.1691 83.4542 33.9318C83.4542 33.7284 83.4203 33.7962 83.5898 33.7623C83.9627 33.6267 84.4034 33.6267 84.7763 33.5589C85.895 33.3555 86.9799 33.1521 88.0986 32.9487C88.3359 32.9148 88.5732 32.847 88.8105 32.8809C89.0818 32.9148 89.1157 32.847 89.1157 33.0843C89.1496 33.6267 89.1157 34.203 89.1157 34.7455V49.5942C89.1157 49.7298 89.0817 49.7298 89.1835 49.7976C89.3869 49.9332 89.7259 50.001 89.9293 50.0688C90.0649 50.1027 90.4378 50.1705 90.5056 50.2722C90.5395 50.3061 90.5395 50.679 90.5056 50.7129C90.4717 50.7468 90.2683 50.7468 90.2344 50.7468C89.7598 50.8146 89.3191 50.8824 88.8444 50.9163C87.7935 51.0519 86.7426 51.1875 85.6577 51.3231C85.4882 51.357 85.0814 51.4248 85.0136 51.2892C84.9458 51.1536 85.0136 50.7129 85.0136 50.5773C85.0136 50.4756 85.0814 50.0349 85.0136 49.9671C84.9458 49.8993 84.2 50.5773 84.0983 50.6451C83.6915 50.9163 83.2508 51.1197 82.7761 51.2553C82.0303 51.4587 81.1828 51.4587 80.437 51.2892C77.1824 50.5434 76.5044 46.6787 76.7756 43.8649C76.9112 42.3732 77.3858 40.8816 78.4029 39.7967C79.3521 38.8136 80.6404 38.3051 81.9625 38.2034C82.9795 38.1017 83.9627 38.1695 84.878 38.5424ZM84.878 49.3569V41.0172V39.4577C84.878 39.2543 84.8441 39.2204 84.6068 39.0848C84.1322 38.8136 83.522 38.7119 83.0134 38.9153C82.2337 39.2204 81.8608 40.1358 81.6574 40.8816C81.2506 42.2376 81.2167 43.6954 81.2506 45.1192C81.2845 46.3397 81.3184 47.8313 81.9964 48.9162C82.6066 49.8654 83.9966 50.1027 84.878 49.3569ZM96.0993 38.2373C96.2688 38.2712 96.4722 38.2034 96.54 38.3729C96.5739 38.4746 96.54 38.7119 96.54 38.8136V49.4247C96.54 49.5603 96.5061 49.7637 96.54 49.8993C96.5739 50.0349 96.7095 50.0688 96.8451 50.1366C97.0485 50.2383 97.218 50.34 97.4214 50.4417C97.4893 50.4756 97.6926 50.5434 97.7266 50.6451C97.7266 50.679 97.7605 51.0858 97.7266 51.1197H97.6249C97.4214 51.1536 97.1502 51.1197 96.9129 51.1197H91.7599C91.6243 51.1197 91.2514 51.1875 91.1497 51.1197C91.0819 51.0858 91.048 50.679 91.1158 50.6112C91.1836 50.5095 91.4209 50.4417 91.5226 50.4078C91.7261 50.3061 91.9295 50.1705 92.1329 50.0688C92.3024 49.9671 92.2685 50.001 92.2685 49.8654C92.3363 49.3569 92.2685 48.7806 92.2685 48.272V45.5938V40.7121C92.2685 40.5765 92.3024 40.3392 92.2685 40.2036C92.2346 40.0679 92.0651 40.0679 91.9295 40.0001C91.6921 39.8984 91.4887 39.8306 91.2514 39.7289C91.1836 39.695 90.9124 39.6611 90.8446 39.5594C90.8107 39.5255 90.8107 39.1865 90.8446 39.1526C90.8785 39.1187 90.9463 39.1526 90.9802 39.1187C91.2514 39.017 91.5565 39.017 91.8617 38.9492C92.3024 38.8814 92.7092 38.7797 93.1499 38.7119C93.9974 38.5763 94.8111 38.4068 95.6586 38.2712C95.8281 38.3051 95.9637 38.2712 96.0993 38.2373ZM96.5739 35.0845C96.5061 37.1185 93.7601 38 92.5058 36.4066C91.9295 35.6608 91.8956 34.6438 92.4041 33.864C92.9126 33.0843 93.8957 32.7453 94.8111 32.9487C95.8281 33.1521 96.5739 34.0335 96.5739 35.0845ZM111.423 49.9671V41.7969V40.2375C111.423 40.2036 111.457 40.034 111.423 40.0001C111.389 39.9323 111.185 39.8984 111.118 39.8984L110.507 39.695C110.406 39.6611 110.134 39.6272 110.067 39.5255C109.999 39.4577 110.033 39.2882 110.033 39.1865C110.033 38.9831 110.1 39.017 110.304 38.9831L112.541 38.5763L114.779 38.1695C114.914 38.1356 115.016 38.1017 115.152 38.1017C115.22 38.1017 115.559 38.1017 115.626 38.1356C115.66 38.1695 115.626 38.3729 115.626 38.4407V39.0848C115.626 39.1865 115.559 39.4916 115.626 39.5933C115.694 39.7289 115.83 39.5933 115.931 39.4916C116.237 39.2543 116.542 39.0509 116.881 38.8814C118.101 38.2034 119.559 37.8983 120.949 38.1017C121.898 38.2373 122.678 38.7458 123.017 39.6611C123.254 40.3053 123.288 40.9833 123.288 41.6613V49.3908C123.288 49.5264 123.254 49.7637 123.288 49.8993C123.322 50.0349 123.424 50.0688 123.593 50.1366C123.763 50.2383 123.966 50.34 124.136 50.4417C124.203 50.4756 124.441 50.5434 124.475 50.6451C124.508 50.7129 124.508 51.0519 124.475 51.0858C124.441 51.1536 124.508 51.0858 124.407 51.1197C124.271 51.1875 123.966 51.1197 123.797 51.1197H118.949C118.745 51.1197 117.966 51.2214 117.864 51.0858C117.83 51.0519 117.83 50.679 117.864 50.6112C117.898 50.5434 118.101 50.4756 118.169 50.4417C118.372 50.34 118.542 50.2383 118.745 50.1366C118.813 50.1027 119.016 50.0349 119.05 49.9671C119.084 49.8993 119.05 49.7637 119.05 49.6959V48.9501V46.577V42.0003C119.05 41.4579 119.084 40.8477 118.745 40.3731C118.474 39.9662 117.999 39.8645 117.525 39.8306C117.152 39.8306 116.813 39.8645 116.474 39.9662C116.304 40.034 115.796 40.1697 115.694 40.3731C115.66 40.4409 115.694 40.5765 115.694 40.6443V49.4247C115.694 49.5264 115.66 49.7637 115.694 49.8654C115.728 50.001 115.931 50.0349 116.033 50.1027C116.203 50.2044 116.406 50.3061 116.576 50.4078C116.643 50.4417 116.779 50.5095 116.813 50.5434C116.847 50.5773 116.847 50.9841 116.813 51.018C116.813 51.0519 116.779 51.018 116.745 51.018C116.61 51.0858 116.271 51.018 116.135 51.018H110.439C110.27 51.018 110.236 51.0519 110.202 50.9502C110.168 50.8824 110.168 50.5773 110.202 50.5095C110.236 50.4417 110.439 50.3739 110.507 50.34C110.846 50.3061 111.118 50.1366 111.423 49.9671ZM104.236 43.7293C104.236 42.8478 104.269 41.9325 104.202 41.0172C104.1 40.034 103.829 38.9492 102.71 38.7458C102.371 38.678 101.761 38.5763 101.523 38.8475C101.286 39.0848 101.117 39.4238 100.913 39.695L99.1843 42.0342C99.0826 42.1698 98.9809 42.441 98.8453 42.5088C98.8114 42.5427 98.4724 42.5427 98.4724 42.5088C98.4385 42.4749 98.4724 42.2376 98.4724 42.1698V39.4238C98.4724 39.3221 98.4385 39.1526 98.4724 39.0509C98.5402 38.8814 99.286 38.7797 99.4555 38.7119C100.405 38.4746 101.388 38.3051 102.371 38.2373C103.761 38.1356 105.32 38.1695 106.609 38.7797C107.626 39.2543 108.27 40.1019 108.439 41.1867C108.541 41.7291 108.507 42.3393 108.507 42.8817V49.662C108.507 49.7637 108.439 50.0349 108.507 50.1027C108.541 50.1366 108.711 50.1705 108.744 50.1705C109.016 50.2383 109.253 50.3061 109.524 50.3739C109.694 50.4078 109.728 50.4078 109.728 50.5773C109.728 50.7468 109.761 50.7468 109.558 50.8146C109.321 50.9163 109.083 51.018 108.846 51.0858C107.592 51.4587 105.626 51.5605 104.71 50.4078C104.642 50.3061 104.439 49.8654 104.337 49.8315C104.202 49.7976 103.795 50.34 103.659 50.4417C103.117 50.9163 102.405 51.1875 101.693 51.2892C100.371 51.4587 98.947 51.1875 98.1334 50.0349C97.4553 49.0518 97.3197 47.5262 97.8283 46.4414C98.7436 44.3734 101.456 44.17 103.422 43.831C103.659 43.831 103.93 43.7632 104.236 43.7293ZM104.236 49.3569V44.3395C103.219 44.4073 102.168 44.4751 101.795 45.5938C101.523 46.3397 101.523 47.2211 101.625 48.0008C101.693 48.5432 101.829 49.2213 102.337 49.5603C102.88 49.9332 103.795 49.8654 104.236 49.3569ZM61.3167 43.7293C61.3167 42.8478 61.3506 41.9325 61.2828 41.0172C61.1811 40.034 60.9099 38.9492 59.7911 38.7458C59.4521 38.678 58.8419 38.5763 58.6046 38.8475C58.3673 39.0848 58.1978 39.4238 57.9944 39.695L56.2654 42.0342C56.1637 42.1698 56.062 42.441 55.9264 42.5088C55.8925 42.5427 55.5535 42.5427 55.5535 42.5088C55.5196 42.4749 55.5535 42.2376 55.5535 42.1698V39.4577C55.5535 39.356 55.5196 39.1865 55.5535 39.0848C55.6213 38.9153 56.3332 38.8136 56.5366 38.7458C57.4859 38.5085 58.469 38.339 59.4182 38.2712C60.8082 38.1695 62.3676 38.2034 63.6559 38.8136C64.6729 39.2882 65.317 40.1358 65.4865 41.2206C65.5882 41.763 65.5543 42.3732 65.5543 42.9157V49.6959C65.5543 49.7976 65.4865 50.0688 65.5543 50.1366C65.5882 50.1705 65.7577 50.2044 65.7916 50.2044C66.0628 50.2722 66.3002 50.34 66.5714 50.4078C66.7409 50.4417 66.7748 50.4417 66.7748 50.6112C66.7748 50.7807 66.8087 50.7807 66.6053 50.8485C66.368 50.9502 66.1306 51.0519 65.8933 51.1197C64.639 51.4926 62.6727 51.5944 61.7574 50.4417C61.6896 50.34 61.4862 49.8993 61.3845 49.8654C61.2489 49.8315 60.8421 50.3739 60.7404 50.4756C60.1979 50.9502 59.486 51.2214 58.7741 51.3231C57.452 51.4926 56.0281 51.2214 55.2145 50.0688C54.5364 49.0857 54.4008 47.5601 54.9094 46.4753C55.8247 44.4073 58.5368 44.2039 60.4692 43.8649C60.7404 43.831 61.0116 43.7632 61.3167 43.7293ZM61.3167 49.3569V44.3395C60.2996 44.4073 59.2487 44.4751 58.8758 45.5938C58.6046 46.3397 58.6046 47.2211 58.7063 48.0008C58.7741 48.5432 58.9097 49.2213 59.4182 49.5603C59.9606 49.9332 60.876 49.8654 61.3167 49.3569Z" fill="#121212"/>
</g>
</svg>
