<svg width="169" height="70" viewBox="0 0 169 70" fill="none" xmlns="http://www.w3.org/2000/svg">
<g opacity="0.6">
<path d="M57.805 41.568C57.805 42.082 57.69 42.631 57.305 43.051H67.55V37.901C66.838 38.228 65.95 38.389 65.113 38.389H62.9V36.694H64.066C64.7 36.694 65.263 36.754 65.866 37.014V32.564C65.263 32.822 64.7 32.884 64.066 32.884H62.9V30.977H65.124C65.971 30.977 66.849 31.137 67.561 31.463V26.527H57.276C57.671 26.869 57.806 27.497 57.806 28.01L57.805 41.568ZM48.907 32.882V31.187H49.122C49.702 31.187 50.376 31.28 50.814 31.514V26.526H43.614V43.05H49.436C49.041 42.708 48.906 42.08 48.906 41.567V36.907H51.66V41.567C51.66 42.081 51.526 42.707 51.13 43.05H56.956V26.525H51.66V32.881L48.907 32.882ZM36.219 31.187H37.467V41.567C37.467 42.081 37.332 42.707 36.937 43.05H42.763V26.525H34.5V31.513C34.965 31.279 35.638 31.186 36.218 31.186L36.219 31.187ZM123.902 32.882H117.562C117.238 32.882 116.865 32.852 116.492 32.732V36.844C116.865 36.727 117.238 36.694 117.562 36.694H119.247V37.964C119.039 38.15 118.584 38.264 118.12 38.264C116.193 38.264 114.776 36.744 114.776 34.904C114.776 33.064 116.154 31.407 118.081 31.407C119.247 31.407 120.561 31.787 122.001 32.467V26.533H117.764C113.189 26.533 109.544 30.073 109.544 34.86C109.544 39.546 113.214 43.482 117.976 43.482C120.6 43.482 123.044 42.414 124.32 41.109C124.066 40.641 123.903 40.177 123.903 39.616L123.902 32.882ZM132.062 30.975C132.909 30.975 133.787 31.135 134.499 31.461V26.525H124.225C124.62 26.867 124.755 27.495 124.755 28.008V41.568C124.755 42.082 124.64 42.631 124.255 43.051H134.5V37.901C133.788 38.228 132.9 38.389 132.063 38.389H129.839V36.694H131.005C131.639 36.694 132.202 36.754 132.805 37.014V32.564C132.202 32.822 131.639 32.884 131.005 32.884H129.839V30.977L132.062 30.975ZM107.486 35.595C108.369 34.62 108.906 33.342 108.906 32.042C108.906 28.235 106.072 26.528 103.03 26.528L96.472 26.526C96.865 26.868 97.002 27.49 97.002 28.002L97 41.568C97 42.068 96.863 42.634 96.47 43.051H102.782C102.387 42.634 102.297 42.051 102.297 41.568V38.205C104.097 38.549 105.312 40.229 105.312 41.575C105.312 42.075 105.192 42.635 104.798 43.051H111.093C110.698 42.634 110.596 42.029 110.559 41.519C110.347 38.602 109.344 36.545 107.486 35.595ZM102.286 33.965V30.965C103.133 30.965 104.216 31.199 104.216 32.47C104.216 33.741 103.136 33.975 102.286 33.975V33.965ZM79.193 35.638L77.498 30.978H80.04L81.735 26.528H69.88C70.25 26.903 70.6 27.321 70.855 27.811L77.42 43.05H81.005L86.408 30.338V41.568C86.405 42.095 86.274 42.708 85.878 43.051H96.154V37.901C95.451 38.228 94.566 38.601 93.718 38.601H91.49V36.694H92.654C93.291 36.694 93.852 36.754 94.456 37.014V32.564C93.853 32.822 93.292 32.884 92.654 32.884H91.49V31.189H93.715C94.562 31.189 95.447 31.349 96.151 31.677V26.527H82.591L79.193 35.638Z" fill="#121212"/>
</g>
</svg>
