<svg width="149" height="70" viewBox="0 0 149 70" fill="none" xmlns="http://www.w3.org/2000/svg">
<g opacity="0.6">
<path d="M115.45 27H118.717V24.15H121.033V27H124.283V29.2H121.033V32.05H118.717V29.2H115.467V27H115.45ZM116.283 44.0167H124.5V46.4334H113.4V36.6834H124.267V39.1H116.283V40.4H122.8V42.6H116.283V44.0167ZM113 33.0834H102.017V23.3334H104.9V30.6667H113V33.0834ZM106.05 40C106.05 39.4167 105.683 39.1167 104.8 39.1167H99.8833V40.9H104.8C105.667 40.9 106.05 40.5834 106.05 40ZM104.067 43.2667H99.8667V46.4334H96.9833V36.6834H104.667C107.617 36.6834 109.05 38.1334 109.05 39.9667C109.05 41.2834 108.25 42.2667 106.817 42.7667L109.75 46.4334H106.517L104.067 43.2667ZM89.3833 30.6667H97.6V33.0834H86.5V23.3334H97.3833V25.75H89.3833V27.05H95.9V29.25H89.3833V30.6667ZM89.7 42.05V36.7H92.5833V42.1667C92.5833 45.15 90.6 46.6667 86.55 46.6667C82.5167 46.6667 80.5167 45.15 80.5167 42.1667V36.7H83.4V42.05C83.4 43.5 84.3 44.1334 86.5333 44.1334C88.8 44.1167 89.7 43.5 89.7 42.05ZM78.1 33.0834H75.5L69.6167 23.3334H72.8833L76.85 30L80.8167 23.3334H83.9833L78.1 33.0834ZM74.8333 39.7334C72.6167 38.9667 71.4167 38.7834 69.9667 38.7834C68.1333 38.7834 67.7333 39.0834 67.7333 39.5C67.7333 39.8 67.9667 39.9667 68.7333 40.05L72.95 40.4C75.8667 40.65 76.8833 41.8334 76.8833 43.4167C76.8833 45.2834 74.85 46.6667 70.7333 46.6667C68.8667 46.6667 66.3667 46.2667 64.1833 45.55L65.7 43.1667C67.8667 43.9667 69.95 44.3167 71.4667 44.3167C73.45 44.3167 73.8833 44 73.8833 43.6167C73.8833 43.3 73.6667 43.0667 72.8 42.9834L68.7 42.6C65.9167 42.35 64.8667 41.3 64.8667 39.7167C64.8667 38.05 66.45 36.4667 70.55 36.4667C72.3333 36.4667 74.2167 36.8167 76.2667 37.5667L74.8333 39.7334ZM65.05 29.1334L63.3167 26.1334L61.5833 29.1334H65.05ZM57.15 46.4334H60.0333V36.6834H57.15V46.4334ZM66.3833 31.4334H60.2333L59.2833 33.0834H56.1667L62.05 23.3334H64.65L70.5333 33.0834H67.3333L66.3833 31.4334ZM50.7 26.65C50.7 26.0667 50.3333 25.7667 49.45 25.7667H44.5333V27.55H49.45C50.3333 27.55 50.7 27.2334 50.7 26.65ZM44.5167 44.0167H52.7333V46.4334H41.6333V36.6834H52.5167V39.1H44.5333V40.4H51.05V42.6H44.5333V44.0167H44.5167ZM48.7167 29.9167H44.5167V33.0834H41.6333V23.3334H49.3167C52.2667 23.3334 53.7 24.7834 53.7 26.6167C53.7 27.9334 52.9 28.9167 51.4667 29.4167L54.4 33.0834H51.1667L48.7167 29.9167ZM37.8333 46.4334H26.8333V36.6834H29.7167V44H37.8167V46.4334H37.8333ZM24.5 23.35H37.8167V25.7667H32.6V33.0834H29.7167V25.7667H24.5V23.35Z" fill="#121212"/>
</g>
</svg>
