<svg width="149" height="70" viewBox="0 0 149 70" fill="none" xmlns="http://www.w3.org/2000/svg">
<g opacity="0.6">
<path fill-rule="evenodd" clip-rule="evenodd" d="M60.3475 27.7119V38.7288H63.0593H65.7712V34.4916C65.7712 31.6949 65.7712 30.1695 65.7712 30C65.8559 29.5763 65.9407 29.1526 66.1949 28.8136C66.5339 28.2204 67.1271 27.9661 67.8051 28.0509C68.7373 28.1356 69.3305 28.6441 69.5 29.7458C69.5 29.9153 69.5 31.6102 69.5 34.3221V38.6441H72.2119H74.9237V33.5594C74.9237 29.2373 74.9237 28.3899 74.839 27.9661C74.6695 26.4407 74.161 25.2543 73.2288 24.4068C72.4661 23.6441 71.5339 23.2204 70.4322 23.0509C70.0085 22.9661 68.822 23.0509 68.4831 23.1356C67.4661 23.3899 66.7034 23.7288 66.0254 24.4916L65.6017 24.8305V20.7627V16.6949H62.8898H60.178V27.7119H60.3475ZM117.975 16.8644C117.805 17.2034 112.297 30.5085 112.297 30.5085C112.297 30.5085 113.737 30.5085 115.517 30.5085H118.737L121.619 23.6441C123.229 19.8305 124.5 16.6949 124.5 16.6949C124.5 16.6949 123.059 16.6949 121.28 16.6949H118.059L117.975 16.8644ZM48.4831 23.1356C47.2966 23.3051 46.3644 23.6441 45.4322 24.2373C43.5678 25.4238 42.3814 27.4577 42.0424 29.8305C41.8729 30.9322 41.9576 32.2882 42.2119 33.3051C42.8898 35.9322 44.6695 37.9661 46.9576 38.7288C47.8051 38.9831 48.1441 39.0678 49.161 39.0678C49.9237 39.0678 50.178 39.0678 50.4322 38.9831C51.5339 38.7288 52.2966 38.3051 52.9746 37.6272L53.3136 37.2882V37.9661V38.6441H55.9407H58.5678V31.017V23.3899H55.9407H53.3136V24.0678V24.7458L53.0593 24.4916C52.4661 23.8136 51.6186 23.3899 50.517 23.1356C50.178 23.0509 50.0085 23.0509 49.3305 23.0509C48.9068 23.1356 48.5678 23.1356 48.4831 23.1356ZM83.0593 23.1356C81.6186 23.3051 80.0932 23.9831 78.9915 24.8305C76.8729 26.6102 75.7712 29.4068 76.1949 32.2882C76.6186 35.5085 78.9068 37.9661 82.1271 38.8136C82.8051 38.9831 83.4831 39.0678 84.3305 39.0678C85.8559 39.0678 86.9576 38.8136 88.1441 38.2204C90.517 37.0339 92.0424 34.9153 92.3814 32.2882C92.4661 31.6102 92.4661 30.5085 92.3814 29.9153C92.2119 28.6441 91.7034 27.3729 90.9407 26.356C90.6017 25.9322 89.9237 25.1695 89.5 24.8305C88.3136 23.8983 86.9576 23.3051 85.4322 23.1356C84.839 23.0509 83.6525 23.0509 83.0593 23.1356ZM100.347 23.1356C98.9068 23.3051 97.4661 23.8983 96.3644 24.8305C95.9407 25.1695 95.178 25.9322 94.9237 26.356C94.161 27.3729 93.7373 28.6441 93.4831 29.9153C93.3983 30.5085 93.3983 31.6949 93.4831 32.2882C93.9915 35.678 96.4492 38.3051 99.839 38.9831C100.517 39.1526 100.856 39.1526 101.619 39.1526C103.059 39.1526 104.331 38.8983 105.517 38.2204C108.653 36.6102 110.347 33.0509 109.585 29.4068C108.907 26.017 106.195 23.5594 102.72 23.1356C102.127 23.0509 100.941 23.0509 100.347 23.1356ZM24.5 23.4746C24.5 23.4746 25.9407 26.9492 27.7203 31.1865C29.5 35.4238 30.9407 38.8983 30.9407 38.8983C30.9407 38.8983 30.4322 40.1695 29.7542 41.6949C29.0763 43.2204 28.5678 44.4068 28.5678 44.4916C28.5678 44.5763 29.839 44.4916 31.4492 44.4916H34.3305L38.6525 34.0678C41.0254 28.3051 42.9746 23.6441 42.9746 23.5594C42.9746 23.5594 42.3814 23.4746 40.0932 23.5594H37.2119L35.4322 27.9661C34.6695 30.339 33.9068 32.3729 33.9068 32.3729C33.9068 32.3729 33.1441 30.339 32.1271 27.9661L30.4322 23.5594H27.4661C25.8559 23.4746 24.5 23.4746 24.5 23.4746ZM51.1102 28.0509C52.2119 28.3051 53.0593 29.1526 53.3983 30.2543C53.483 30.678 53.483 31.4407 53.3983 31.8644C53.1441 32.9661 52.2966 33.8136 51.1949 34.0678C50.7712 34.1526 50.0085 34.1526 49.5847 34.0678C48.6525 33.8136 47.8051 33.1356 47.4661 32.2882C47.0424 31.356 47.2119 30.1695 47.7203 29.3221C48.4831 28.2204 49.7542 27.7966 51.1102 28.0509ZM84.9237 28.1356C86.1102 28.3051 87.0424 29.2373 87.2966 30.4238C87.3814 30.8475 87.3814 31.5255 87.2966 31.9492C87.0424 33.0509 86.1949 33.8136 85.178 34.1526C84.839 34.2373 83.9068 34.2373 83.5678 34.1526C82.7203 33.8983 82.0424 33.3051 81.6186 32.5424C81.3644 32.0339 81.3644 31.7797 81.3644 31.1865C81.3644 30.678 81.4492 30.4238 81.6186 30C81.8729 29.4916 82.2119 28.9831 82.7203 28.6441C83.2288 28.1356 84.0763 27.9661 84.9237 28.1356ZM102.127 28.1356C103.144 28.3051 103.992 28.9831 104.331 29.9153C104.5 30.339 104.585 30.5933 104.585 31.1017C104.585 31.6949 104.5 31.9492 104.331 32.4577C103.992 33.2204 103.229 33.8136 102.381 34.0678C102.042 34.1526 101.11 34.1526 100.771 34.0678C99.7542 33.8136 98.9068 32.9661 98.6525 31.8644C98.5678 31.4407 98.5678 30.678 98.6525 30.2543C98.9915 28.8983 100.178 27.9661 101.534 27.9661C101.703 28.0509 101.958 28.0509 102.127 28.1356ZM113.653 31.8644C112.042 32.0339 110.856 33.2204 110.517 34.7458C110.432 35.1695 110.432 35.9322 110.517 36.356C110.856 37.7119 111.873 38.6441 113.229 38.9831C113.398 38.9831 113.737 39.0678 113.992 39.0678C115.008 39.0678 115.856 38.7288 116.534 38.0509C117.297 37.2882 117.551 36.5255 117.551 35.5085C117.551 34.2373 116.958 33.1356 115.941 32.5424C115.263 31.9492 114.331 31.7797 113.653 31.8644ZM68.9915 40.1695C67.8898 40.5085 67.3814 41.7797 67.9746 42.7119C68.1441 42.9661 68.483 43.3051 68.7373 43.3899C68.9915 43.4746 68.9915 43.4746 69.5 43.4746C69.9237 43.4746 70.0085 43.4746 70.2627 43.3899C70.6017 43.2204 70.9407 42.8814 71.1102 42.5424C71.5339 41.6949 71.1102 40.678 70.2627 40.2543C70.0085 40.0848 69.9237 40.0848 69.5847 40.0848C69.2458 40.0848 69.161 40.0848 68.9915 40.1695ZM64.4153 40.2543C62.9746 40.5085 62.0424 41.4407 61.6186 42.9661C61.5339 43.2204 61.5339 43.4746 61.5339 43.8136V44.4068H60.9407H60.3475V45.678V46.9492H60.9407H61.5339V50V53.0509H63.1441H64.7542V50V46.9492H65.8559H66.9576V45.678V44.4068H65.8559H64.7542V44.1526C64.839 43.5594 65.0932 43.1356 65.6017 43.0509C65.9407 42.9661 66.4492 42.9661 66.7881 43.1356C66.9576 43.2204 67.0424 43.2204 67.0424 43.2204C67.0424 43.2204 67.0424 42.6272 67.0424 41.8644V40.5085L66.7881 40.4238C66.4492 40.2543 66.0254 40.2543 65.4322 40.2543C65.0085 40.1695 64.6695 40.2543 64.4153 40.2543ZM77.2966 44.2373C76.6186 44.4068 76.1102 44.7458 75.7712 45.1695L75.6017 45.4238V44.9153V44.4068H73.9915H72.3814V48.7288V53.0509H73.9915H75.6017V50.678C75.6017 49.3221 75.6017 48.2204 75.6017 48.0509C75.6864 47.7119 75.8559 47.3729 76.0254 47.2034C76.4492 46.8644 77.2119 46.9492 77.5508 47.3729C77.8051 47.7119 77.8051 47.7119 77.8051 50.4238V52.9661H79.4153H81.0254V50.0848C81.0254 47.0339 81.0254 46.6949 80.8559 46.1017C80.6864 45.5933 80.5169 45.1695 80.0932 44.8305C79.7542 44.4916 79.4153 44.2373 78.9068 44.1526C78.4831 44.1526 77.6356 44.1526 77.2966 44.2373ZM85.3475 44.1526C84.839 44.2373 84.0763 44.4916 83.6525 44.8305C82.7203 45.5085 82.1271 46.5255 81.8729 47.7966C81.7881 48.3051 81.7881 49.2373 81.8729 49.7458C82.0424 50.5085 82.2966 51.2712 82.7203 51.7797C83.3136 52.5424 84.0763 53.0509 85.0085 53.2204C85.517 53.3051 86.3644 53.3051 86.7881 53.1356C87.2966 52.9661 87.6356 52.7966 88.0593 52.4577L88.3983 52.1187V52.5424V52.9661H90.0085H91.6186V48.6441V44.3221H90.0085H88.3983V44.7458V45.1695L88.1441 45.0848C87.7203 44.661 87.1271 44.3221 86.4492 44.2373C86.1949 44.1526 85.6017 44.1526 85.3475 44.1526ZM97.6356 44.2373C97.0424 44.3221 96.4492 44.7458 96.1102 45.1695L95.9407 45.339V44.8305V44.3221H94.3305H92.7203V48.6441V52.9661H94.3305H95.9407V50.5085C95.9407 47.8814 95.9407 47.8814 96.1102 47.4577C96.2797 47.1187 96.6186 46.9492 96.9576 46.9492C97.2966 46.9492 97.4661 47.0339 97.7203 47.2034C98.0593 47.5424 98.0593 47.4577 98.0593 50.339V52.8814H99.6695H101.28V49.7458C101.28 46.6102 101.28 46.6102 101.195 46.2712C101.11 46.1017 101.025 45.7627 100.941 45.5085C100.771 45.1695 100.686 45.0848 100.432 44.8305C100.093 44.4916 99.839 44.3221 99.5 44.1526C98.9068 44.1526 98.2288 44.0678 97.6356 44.2373ZM106.025 44.2373C104.585 44.4916 103.483 45.1695 102.805 46.356C102.636 46.6949 102.466 47.1187 102.297 47.5424C102.212 47.9661 102.212 48.0509 102.212 48.7288C102.212 49.4916 102.212 49.7458 102.466 50.339C102.975 51.7797 104.161 52.8814 105.771 53.2204C106.025 53.3051 106.28 53.3051 106.873 53.3051C107.72 53.3051 108.059 53.2204 108.653 52.9661L108.992 52.7966V51.356V49.9153L108.737 50.0848C108.314 50.339 108.059 50.4238 107.551 50.4238C107.042 50.4238 106.788 50.4238 106.449 50.2543C106.11 50.0848 105.856 49.8305 105.686 49.4916C105.602 49.2373 105.602 49.2373 105.602 48.8136C105.602 48.4746 105.602 48.3899 105.686 48.1356C105.941 47.4577 106.534 47.1187 107.381 47.0339C107.975 47.0339 108.229 47.0339 109.076 47.4577C109.076 47.4577 109.076 46.7797 109.076 46.017V44.5763L108.822 44.4916C107.89 44.1526 106.873 44.0678 106.025 44.2373ZM113.314 44.2373C110.856 44.661 109.331 46.7797 109.5 49.2373C109.585 50.0848 109.839 50.8475 110.263 51.4407C110.856 52.3729 111.788 52.9661 112.975 53.2204C113.483 53.3051 114.839 53.3051 115.432 53.2204C116.28 53.0509 117.042 52.6271 117.636 52.0339C117.89 51.7797 118.314 51.1865 118.314 51.1865C118.314 51.1865 117.72 50.9322 116.958 50.678L115.602 50.1695L115.432 50.339C115.178 50.5933 115.008 50.678 114.669 50.7627C113.737 51.017 112.805 50.5085 112.636 49.661V49.4916H115.602H118.568V48.7288C118.568 48.2204 118.568 47.8814 118.483 47.7119C118.314 46.6949 117.89 46.017 117.297 45.339C116.703 44.7458 116.025 44.4068 115.093 44.2373C114.754 44.1526 113.737 44.1526 113.314 44.2373ZM67.8898 48.7288V53.0509H69.5H71.1102V48.7288V44.4068H69.5H67.8898V48.7288ZM114.585 46.6102C114.839 46.695 114.924 46.7797 115.178 46.9492C115.347 47.1187 115.517 47.2882 115.517 47.5424V47.7119H114.076C112.466 47.7119 112.551 47.7119 112.72 47.3729C112.975 46.7797 113.737 46.4407 114.585 46.6102ZM87.2119 47.0339C87.6356 47.1187 88.1441 47.5424 88.3136 47.9661C88.7373 48.8983 88.3136 50 87.2966 50.339C86.9576 50.4238 86.4492 50.4238 86.1102 50.339C85.6017 50.1695 85.0932 49.7458 85.0085 49.2373C84.9237 48.9831 84.9237 48.8983 84.9237 48.6441C84.9237 48.3051 84.9237 48.2204 85.0932 47.9661C85.4322 47.2034 86.2797 46.8644 87.2119 47.0339Z" fill="#121212"/>
</g>
</svg>
