<svg width="135" height="40" viewBox="0 0 135 40" fill="none" xmlns="http://www.w3.org/2000/svg">
<rect width="135" height="40" rx="8" fill="white"/>
<path d="M89.5257 19.2013V21.4924H88.0896V22.9948H89.5257V28.0998C89.5257 29.8429 90.3143 30.5402 92.2981 30.5402C92.6468 30.5402 92.9788 30.4987 93.2693 30.4489V28.9631C93.0203 28.988 92.8626 29.0046 92.5887 29.0046C91.7005 29.0046 91.3104 28.5895 91.3104 27.6432V22.9948H93.2693V21.4924H91.3104V19.2013H89.5257Z" fill="black"/>
<path d="M98.3232 30.6647C100.963 30.6647 102.581 28.8967 102.581 25.9665C102.581 23.0529 100.955 21.2765 98.3232 21.2765C95.6835 21.2765 94.0566 23.0529 94.0566 25.9665C94.0566 28.8967 95.6752 30.6647 98.3232 30.6647ZM98.3232 29.0793C96.7709 29.0793 95.8994 27.9421 95.8994 25.9665C95.8994 24.0075 96.7709 22.862 98.3232 22.862C99.8671 22.862 100.747 24.0075 100.747 25.9665C100.747 27.9338 99.8671 29.0793 98.3232 29.0793Z" fill="black"/>
<path d="M103.966 30.4904H105.751V25.153C105.751 23.883 106.706 23.028 108.059 23.028C108.374 23.028 108.905 23.0861 109.055 23.1359V21.3762C108.864 21.3263 108.524 21.3014 108.258 21.3014C107.079 21.3014 106.075 21.9489 105.817 22.8371H105.685V21.4509H103.966V30.4904Z" fill="black"/>
<path d="M113.486 22.7956C114.806 22.7956 115.669 23.717 115.711 25.1364H111.145C111.245 23.7253 112.166 22.7956 113.486 22.7956ZM115.702 28.05C115.37 28.7555 114.632 29.1457 113.552 29.1457C112.125 29.1457 111.203 28.1413 111.145 26.5558V26.4562H117.529V25.8337C117.529 22.9948 116.009 21.2765 113.494 21.2765C110.946 21.2765 109.327 23.111 109.327 25.9997C109.327 28.8884 110.913 30.6647 113.503 30.6647C115.57 30.6647 117.014 29.6686 117.421 28.05H115.702Z" fill="black"/>
<path d="M77.8221 27.1522C77.9598 29.372 79.8095 30.7915 82.5626 30.7915C85.505 30.7915 87.3462 29.3031 87.3462 26.9286C87.3462 25.0616 86.2966 24.0292 83.7499 23.4355L82.382 23.1C80.7645 22.7214 80.1106 22.2138 80.1106 21.3277C80.1106 20.2092 81.1259 19.4779 82.6487 19.4779C84.0941 19.4779 85.0921 20.192 85.2727 21.3363H87.1483C87.0365 19.2456 85.1953 17.7744 82.6745 17.7744C79.9644 17.7744 78.1576 19.2456 78.1576 21.4567C78.1576 23.2807 79.1815 24.3647 81.427 24.8895L83.0272 25.2767C84.6705 25.6638 85.3932 26.2317 85.3932 27.1781C85.3932 28.2793 84.2575 29.0794 82.7089 29.0794C81.0484 29.0794 79.8955 28.3309 79.7321 27.1522H77.8221Z" fill="black"/>
<path d="M59.3348 21.3014C58.1063 21.3014 57.0437 21.9157 56.4959 22.945H56.3631V21.4509H54.6448V33.4953H56.4295V29.1208H56.5706C57.0437 30.0754 58.0647 30.6398 59.3514 30.6398C61.6341 30.6398 63.0867 28.8386 63.0867 25.9665C63.0867 23.0944 61.6341 21.3014 59.3348 21.3014ZM58.8284 29.0378C57.3343 29.0378 56.3963 27.8591 56.3963 25.9748C56.3963 24.0822 57.3343 22.9035 58.8367 22.9035C60.3475 22.9035 61.2522 24.0573 61.2522 25.9665C61.2522 27.884 60.3475 29.0378 58.8284 29.0378Z" fill="black"/>
<path d="M69.3316 21.3014C68.103 21.3014 67.0405 21.9157 66.4927 22.945H66.3599V21.4509H64.6416V33.4953H66.4263V29.1208H66.5674C67.0405 30.0754 68.0615 30.6398 69.3482 30.6398C71.6309 30.6398 73.0835 28.8386 73.0835 25.9665C73.0835 23.0944 71.6309 21.3014 69.3316 21.3014ZM68.8252 29.0378C67.3311 29.0378 66.3931 27.8591 66.3931 25.9748C66.3931 24.0822 67.3311 22.9035 68.8335 22.9035C70.3443 22.9035 71.249 24.0573 71.249 25.9665C71.249 27.884 70.3443 29.0378 68.8252 29.0378Z" fill="black"/>
<path d="M51.4428 30.4904H53.4905L49.008 18.0755H46.9346L42.4521 30.4904H44.431L45.5752 27.1953H50.3072L51.4428 30.4904ZM47.8724 20.3297H48.0186L49.8168 25.5778H46.0656L47.8724 20.3297Z" fill="black"/>
<path d="M43.6514 8.71069V14.6997H45.8137C47.5984 14.6997 48.6318 13.5999 48.6318 11.6865C48.6318 9.80225 47.5901 8.71069 45.8137 8.71069H43.6514ZM44.5811 9.55737H45.71C46.9509 9.55737 47.6855 10.3459 47.6855 11.699C47.6855 13.0728 46.9634 13.853 45.71 13.853H44.5811V9.55737Z" fill="black"/>
<path d="M51.7969 14.7869C53.1167 14.7869 53.9261 13.9028 53.9261 12.4377C53.9261 10.981 53.1126 10.0928 51.7969 10.0928C50.4771 10.0928 49.6636 10.981 49.6636 12.4377C49.6636 13.9028 50.4729 14.7869 51.7969 14.7869ZM51.7969 13.9941C51.0208 13.9941 50.585 13.4255 50.585 12.4377C50.585 11.4583 51.0208 10.8855 51.7969 10.8855C52.5689 10.8855 53.0088 11.4583 53.0088 12.4377C53.0088 13.4214 52.5689 13.9941 51.7969 13.9941Z" fill="black"/>
<path d="M60.8182 10.1799H59.9259L59.1207 13.6289H59.0501L58.1205 10.1799H57.2655L56.3358 13.6289H56.2694L55.4601 10.1799H54.5553L55.8004 14.6997H56.7176L57.6473 11.3711H57.7179L58.6517 14.6997H59.5772L60.8182 10.1799Z" fill="black"/>
<path d="M61.8458 14.6997H62.7382V12.0559C62.7382 11.3503 63.1574 10.9104 63.8173 10.9104C64.4772 10.9104 64.7926 11.2715 64.7926 11.9978V14.6997H65.685V11.7737C65.685 10.6987 65.1288 10.0928 64.1203 10.0928C63.4396 10.0928 62.9914 10.3958 62.7714 10.8979H62.705V10.1799H61.8458V14.6997Z" fill="black"/>
<path d="M67.0903 14.6997H67.9826V8.41602H67.0903V14.6997Z" fill="black"/>
<path d="M71.3386 14.7869C72.6584 14.7869 73.4678 13.9028 73.4678 12.4377C73.4678 10.981 72.6543 10.0928 71.3386 10.0928C70.0188 10.0928 69.2053 10.981 69.2053 12.4377C69.2053 13.9028 70.0146 14.7869 71.3386 14.7869ZM71.3386 13.9941C70.5625 13.9941 70.1267 13.4255 70.1267 12.4377C70.1267 11.4583 70.5625 10.8855 71.3386 10.8855C72.1106 10.8855 72.5505 11.4583 72.5505 12.4377C72.5505 13.4214 72.1106 13.9941 71.3386 13.9941Z" fill="black"/>
<path d="M76.1265 14.0232C75.6409 14.0232 75.2881 13.7866 75.2881 13.3799C75.2881 12.9814 75.5704 12.7698 76.1929 12.7283L77.2969 12.6577V13.0354C77.2969 13.5957 76.7989 14.0232 76.1265 14.0232ZM75.8982 14.7744C76.4917 14.7744 76.9856 14.5171 77.2554 14.0647H77.326V14.6997H78.1851V11.6118C78.1851 10.6572 77.5459 10.0928 76.4129 10.0928C75.3877 10.0928 74.6573 10.5908 74.566 11.3669H75.4292C75.5289 11.0474 75.8733 10.8647 76.3714 10.8647C76.9815 10.8647 77.2969 11.1345 77.2969 11.6118V12.002L76.0726 12.0725C74.9976 12.1389 74.3916 12.6079 74.3916 13.4214C74.3916 14.2473 75.0267 14.7744 75.8982 14.7744Z" fill="black"/>
<path d="M81.2132 14.7744C81.8358 14.7744 82.3629 14.4797 82.6327 13.9858H82.7032V14.6997H83.5582V8.41602H82.6659V10.8979H82.5995C82.3546 10.3999 81.8316 10.1052 81.2132 10.1052C80.0719 10.1052 79.3373 11.01 79.3373 12.4377C79.3373 13.8696 80.0636 14.7744 81.2132 14.7744ZM81.4664 10.9062C82.2135 10.9062 82.6825 11.4998 82.6825 12.4419C82.6825 13.3882 82.2176 13.9734 81.4664 13.9734C80.711 13.9734 80.2586 13.3965 80.2586 12.4377C80.2586 11.4873 80.7152 10.9062 81.4664 10.9062Z" fill="black"/>
<path d="M89.3447 14.7869C90.6645 14.7869 91.4738 13.9028 91.4738 12.4377C91.4738 10.981 90.6604 10.0928 89.3447 10.0928C88.0249 10.0928 87.2114 10.981 87.2114 12.4377C87.2114 13.9028 88.0207 14.7869 89.3447 14.7869ZM89.3447 13.9941C88.5686 13.9941 88.1328 13.4255 88.1328 12.4377C88.1328 11.4583 88.5686 10.8855 89.3447 10.8855C90.1166 10.8855 90.5566 11.4583 90.5566 12.4377C90.5566 13.4214 90.1166 13.9941 89.3447 13.9941Z" fill="black"/>
<path d="M92.655 14.6997H93.5474V12.0559C93.5474 11.3503 93.9666 10.9104 94.6265 10.9104C95.2864 10.9104 95.6018 11.2715 95.6018 11.9978V14.6997H96.4941V11.7737C96.4941 10.6987 95.938 10.0928 94.9294 10.0928C94.2488 10.0928 93.8005 10.3958 93.5806 10.8979H93.5142V10.1799H92.655V14.6997Z" fill="black"/>
<path d="M100.604 9.05518V10.2007H99.8858V10.9519H100.604V13.5044C100.604 14.376 100.998 14.7246 101.99 14.7246C102.164 14.7246 102.33 14.7039 102.476 14.679V13.936C102.351 13.9485 102.272 13.9568 102.135 13.9568C101.691 13.9568 101.496 13.7493 101.496 13.2761V10.9519H102.476V10.2007H101.496V9.05518H100.604Z" fill="black"/>
<path d="M103.673 14.6997H104.566V12.0601C104.566 11.3752 104.973 10.9146 105.703 10.9146C106.334 10.9146 106.67 11.2798 106.67 12.002V14.6997H107.562V11.782C107.562 10.707 106.969 10.0969 106.006 10.0969C105.325 10.0969 104.848 10.3999 104.628 10.9062H104.558V8.41602H103.673V14.6997Z" fill="black"/>
<path d="M110.781 10.8523C111.441 10.8523 111.873 11.313 111.894 12.0227H109.611C109.661 11.3171 110.122 10.8523 110.781 10.8523ZM111.89 13.4795C111.724 13.8323 111.354 14.0273 110.815 14.0273C110.101 14.0273 109.64 13.5251 109.611 12.7324V12.6826H112.803V12.3713C112.803 10.9519 112.043 10.0928 110.786 10.0928C109.511 10.0928 108.702 11.01 108.702 12.4543C108.702 13.8987 109.495 14.7869 110.79 14.7869C111.823 14.7869 112.545 14.2888 112.749 13.4795H111.89Z" fill="black"/>
<path d="M24.769 20.3011C24.7907 18.6201 25.6934 17.0295 27.1256 16.149C26.2221 14.8587 24.7088 14.0406 23.1344 13.9913C21.4552 13.8151 19.8272 14.9962 18.9715 14.9962C18.0992 14.9962 16.7817 14.0088 15.363 14.038C13.5137 14.0978 11.7898 15.1491 10.8901 16.7659C8.95607 20.1143 10.3987 25.0354 12.2513 27.742C13.1782 29.0673 14.2615 30.5478 15.6789 30.4953C17.066 30.4377 17.584 29.6108 19.2583 29.6108C20.9171 29.6108 21.4031 30.4953 22.8493 30.4619C24.3377 30.4377 25.2754 29.1306 26.1698 27.7927C26.8358 26.8484 27.3483 25.8047 27.6882 24.7002C25.9391 23.9604 24.771 22.2002 24.769 20.3011Z" fill="black"/>
<path d="M22.0373 12.2113C22.8489 11.2371 23.2487 9.98494 23.1518 8.7207C21.912 8.85092 20.7668 9.44348 19.9443 10.3803C19.14 11.2956 18.7214 12.5258 18.8006 13.7417C20.0408 13.7545 21.2601 13.178 22.0373 12.2113Z" fill="black"/>
</svg>
