<svg enable-background="new 0 0 128 128" viewBox="0 0 128 128" xmlns="http://www.w3.org/2000/svg" xmlns:xlink="http://www.w3.org/1999/xlink"><linearGradient id="a"><stop offset=".1001" stop-color="#f5f5f5"/><stop offset="1" stop-color="#d0d8dc"/></linearGradient><linearGradient id="b" gradientTransform="matrix(1.0244 -.2537 .0584 .9617 1.141 -839.1443)" gradientUnits="userSpaceOnUse" x1="11.2454" x2="11.2454" xlink:href="#a" y1="902.5084" y2="947.3744"/><linearGradient id="c" gradientTransform="matrix(1.026 -.2037 .0053777 .9736 12.7356 -815.0005)" gradientUnits="userSpaceOnUse" x1="16.762" x2="93.534" y1="858.3395" y2="921.2125"><stop offset=".2588" stop-color="#f4805c"/><stop offset="1" stop-color="#f05323"/></linearGradient><linearGradient id="d" gradientTransform="matrix(1.0244 -.2537 .0584 .9617 1.141 -839.1443)" gradientUnits="userSpaceOnUse" x1="-.4825" x2="-.4825" xlink:href="#a" y1="946.4554" y2="991.3234"/><linearGradient id="e" gradientTransform="matrix(1.026 -.2037 .0053777 .9736 12.7356 -815.0005)" gradientUnits="userSpaceOnUse" x1="7.2535" x2="84.0275" y1="902.869" y2="965.743"><stop offset=".2588" stop-color="#f05454"/><stop offset="1" stop-color="#ed1c24"/></linearGradient><path d="m19.8 36.1s-.3 18.2 13.5 21.3c13.7 3.2 33.3 9.6 39.4 10.8 10.3 2 31.1 4.2 36.6-4.1 10.2-15.5-1.2-34.5-20.3-38.2s-53.8-1.4-61.8 3.3-7.4 6.9-7.4 6.9z" fill="url(#b)"/><ellipse cx="81.62" cy="60.94" fill="#b0bec5" opacity=".6" rx="4.7" ry="2.5" transform="matrix(.4884 -.8726 .8726 .4884 -11.4235 102.3967)"/><ellipse cx="69.69" cy="52.41" fill="#d0d8dc" opacity=".2" rx="4.9" ry="2.4" transform="matrix(.8818 -.4716 .4716 .8818 -16.4779 39.0618)"/><ellipse cx="56.71" cy="57.62" fill="#d0d8dc" opacity=".2" rx="4.9" ry="2.4" transform="matrix(.8984 -.4392 .4392 .8984 -19.5422 30.7621)"/><ellipse cx="69.2" cy="59.19" fill="#b0bec5" opacity=".6" rx="4.9" ry="2.4" transform="matrix(.8984 -.4392 .4392 .8984 -18.966 36.4059)"/><g fill="#d0d8dc"><ellipse cx="45.19" cy="55.41" opacity=".2" rx="4.9" ry="2.4" transform="matrix(.6785 -.7346 .7346 .6785 -26.1777 51.0143)"/><ellipse cx="26.4" cy="42.1" opacity=".2" rx="4.9" ry="2.4" transform="matrix(.6785 -.7346 .7346 .6785 -22.4375 32.9284)"/><ellipse cx="31.29" cy="50.4" opacity=".2" rx="4.7" ry="2.5" transform="matrix(.9749 -.2226 .2226 .9749 -10.4334 8.2308)"/><ellipse cx="39.28" cy="39.01" opacity=".2" rx="5" ry="2.4" transform="matrix(.7958 -.6055 .6055 .7958 -15.5992 31.7483)"/><ellipse cx="58.18" cy="41.54" opacity=".2" rx="3" ry="4" transform="matrix(.834 -.5518 .5518 .834 -13.2595 39.0003)"/><ellipse cx="44" cy="46.69" opacity=".2" rx="4.9" ry="2.4" transform="matrix(.9102 -.4143 .4143 .9102 -15.3915 22.4224)"/><ellipse cx="59.79" cy="46.3" opacity=".2" rx="4.6" ry="2.6" transform="matrix(.9903 -.1389 .1389 .9903 -5.8513 8.7543)"/></g><path d="m125.4 59.6s-8.2-8.7-13.6-18.7-29.1-37.2-69.5-26.1c-14.6 4-20.5 9.1-23.9 12.7-2.2 2.4-3.8 5-4.4 7.3 12.2-6.6 24.8-3.8 35.3 1.3 21.2 10.2 41.7 22.9 65.9 27.2 7.3-1.1 10.2-3.7 10.2-3.7z" fill="url(#c)"/><path d="m13.9 34.8c-1 3.5.3 6.1 4.5 5.3 7-1.2 11.7-6.2 21.9-3s36.8 21.5 54.5 25c8.9 1.8 15.5 1.7 20.3 1.1-41.6-11.1-42.8-18.3-64.9-28.6-11.7-5.5-29.4-5-36.3.2z" fill="#ef4137"/><g fill="#fbcbbd" opacity=".6"><path d="m27.2 37.6c-2.9-3.2-3.6-8.5-.5-12.8 0 0 0 .1.1.1.2.5.5 1 .8 1.4l.1.1c-2 3.1-2.4 6.5.5 9.8.2.2.2.6.1.9z" opacity=".6"/><path d="m46.9 14c-1.3 1-2.6 1.8-4 2.5-1.4.1-2.9.2-4.3.3 1.2-.5 2.3-1 3.5-1.6.1 0 .2-.1.3-.1 1.4-.4 3-.8 4.5-1.1z" opacity=".6"/><path d="m37.5 18.9c1.9-.8 3.6-1.6 5.3-2.4-1.4.1-2.9.2-4.3.3-4.3 1.9-8.6 3.8-11.7 7.9l-.1.1c.3.6.6 1.2.9 1.7 2.2-3.1 6.1-5.9 9.9-7.6z" opacity=".6"/><path d="m56.4 22.1c5.5-2.2 10.5-4.3 15.2-7.8-.9-.1-1.8-.1-2.8-.1-3.1 2.2-6.5 3.8-10 5.2-2.8 1.1-6.3 1-8.8 2.8-2.3 1.6-3.3 4.7-4.1 7 .6.2 1.2.4 1.8.6.1-.4.3-.7.5-1.1 1.7-3.7 4.6-5.2 8.2-6.6z" opacity=".6"/><path d="m46.9 40.3c-.7-.3-1.3-.6-1.9-.9-.4-3.2-.3-6.9.9-10.2.6.2 1.2.4 1.8.6-1.4 3.5-1.3 7.1-.8 10.5z" opacity=".6"/><path d="m72.5 13.6c-.3.2-.6.4-.9.7-.9 0-1.8-.1-2.8-.1.5-.3.9-.6 1.3-1 .9.1 1.6.3 2.4.4z" opacity=".6"/><path d="m61.5 44.4c-.2 1.1-.6 2.2-1.1 3.1-.4-.2-.8-.4-1.1-.6 1.2-1.9 1.2-3.6 1.2-5.5h.8.3c0 1 .1 2-.1 3z" opacity=".8"/><path d="m88.3 19.2c-.7.6-1.3 1.1-2 1.6-.7-.2-1.4-.5-2.1-.7.9-.5 1.8-1 2.7-1.7.4.3.9.6 1.4.8z" opacity=".6"/><path d="m60.6 36.7c-.3 1.8-.2 3.3-.2 4.7.3-.1.7 0 1.1 0v-.1c-.1-1.7 0-3.4.3-4.9-.4 0-.8-.1-1.1-.1 0 .1-.1.3-.1.4z" opacity=".6"/><path d="m66.6 28.9c5.9-4.9 13.4-3.8 19.7-8-.7-.2-1.4-.5-2.1-.7-5.8 2.9-14.7 2.8-20 7.3-3 2.5-2.7 5.3-3.5 8.8.4 0 .8.1 1.1.1.6-2.7 2-5.2 4.8-7.5z" opacity=".6"/><path d="m78.7 46.9c.7 0 1.3 0 1.9.1-.6-1.9-.3-3.9 1-6.1-.7 0-1.4.1-2.2.1-1 2.1-1.3 4-.7 5.9z" opacity=".6"/><path d="m82.5 39.6c2.7-3.5 6.6-3.9 10.3-5.2 2.4-.8 4.6-1.9 6.6-3.2-.5-.4-1.1-.8-1.7-1.2-2.9 1.8-6 3-9.6 4.1-3.5 1.1-6 2.2-8.1 5.6-.3.4-.5.8-.7 1.2.7 0 1.4-.1 2.2-.1.3-.4.6-.8 1-1.2z" opacity=".6"/><path d="m102.2 29.2c-.9.7-1.8 1.4-2.8 2-.5-.4-1.1-.8-1.6-1.2 1-.6 2-1.3 3-2.1.5.4.9.9 1.4 1.3z" opacity=".6"/><path d="m79.5 57.2c-.6-.3-1.2-.5-1.7-.8.6-2.8 3.5-4.9 1.6-8-.3-.5-.5-1-.7-1.5.6 0 1.3 0 1.9.1.2.5.3.9.6 1.4.3.6.8 1 .9 1.8.4 2.3-2.1 4.7-2.6 7z" opacity=".8"/><path d="m97.3 62.9c-.7-.1-1.3-.2-2-.4 3.6-4.7-.5-7.1-.4-11.8 0-.5.1-1.1.3-1.6.7.2 1.5.3 2.2.5-.7 2-.4 3.6.3 5.8 1 2.9 1.1 5.2-.4 7.5z" opacity=".8"/><path d="m111.6 40.9c-2.4.5-5.4.8-7.6 1.7-2.5 1-4 2.6-5.4 4.8-.5.9-.9 1.6-1.1 2.3-.7-.2-1.5-.4-2.2-.5.6-1.6 2-3.2 3.3-4.7 2.2-2.6 4.3-3.5 7.5-4.2 1.3-.3 3.2-.4 4.8-.7.2.5.5.9.7 1.3z"/></g><path d="m61.1 15.2c27.6 0 44.2 19.6 48.3 27.2 3.8 7 8.8 13.3 11.7 16.7-1.4.6-3.4 1.2-6.2 1.6-1.7.2-3.5.4-5.4.4-1 0-1.9.5-2.5 1.4l-.1.1c-1.9 2.8-7.6 4.4-15.9 4.4-7.1 0-14-1.1-17.5-1.8-2.6-.5-8.3-2.1-14.8-4-8-2.3-17-5-24.5-6.7-4.1-1-9.4-4.3-10.9-14.8-.1-.8-.6-1.6-1.3-2.1-.5-.3-1.1-.5-1.7-.5-.2 0-.5 0-.8.1-.6.1-1 .2-1.4.3-.3 0-.6.1-.8.1s-.4 0-.4 0c0-.1 0-.3 0-.5v-.2c0-.4.1-.8.2-1.3.5-1.9 1.9-4.1 3.7-6 3.4-3.6 9.1-8.2 22.6-11.9 6-1.7 12-2.5 17.7-2.5m0-3c-5.7 0-11.9.8-18.6 2.6-14.6 4-20.5 9.1-23.9 12.7-2.2 2.4-3.8 5-4.4 7.3-.2.8-.3 1.5-.3 2.1-.1 2.2 1 3.7 3.5 3.7.4 0 .8 0 1.3-.1.6-.1 1.1-.2 1.6-.4.8 5.5 3.5 15.1 13.1 17.3 13.7 3.2 33.4 9.6 39.5 10.7 4.7.9 11.5 1.9 18.1 1.9 7.9 0 15.5-1.4 18.5-5.9 0 0 0-.1.1-.1 2.2 0 4.1-.2 5.8-.4 7.4-1 10.3-3.6 10.3-3.6s-.1-.1-.2-.2c.1-.1.2-.1.2-.1s-8.3-8.7-13.7-18.8c-4.5-8.4-21.8-28.7-50.9-28.7z" fill="#434343" opacity=".2"/><path d="m10.3 81.3s-.3 18.2 13.5 21.3c13.8 3.2 33.4 9.6 39.5 10.8 10.3 2 31.1 4.2 36.6-4.1 10.2-15.5-1.2-34.5-20.3-38.2s-53.8-1.4-61.8 3.3-7.5 6.9-7.5 6.9z" fill="url(#d)"/><ellipse cx="72.16" cy="106.22" fill="#b0bec5" opacity=".6" rx="4.7" ry="2.5" transform="matrix(.4884 -.8726 .8726 .4884 -55.7724 117.3111)"/><ellipse cx="85.21" cy="106.69" fill="#b0bec5" opacity=".6" rx="4.7" ry="2.5" transform="matrix(.9651 -.262 .262 .9651 -24.975 26.052)"/><ellipse cx="60.22" cy="97.7" fill="#d0d8dc" opacity=".2" rx="4.9" ry="2.4" transform="matrix(.8818 -.4716 .4716 .8818 -38.9602 39.9467)"/><ellipse cx="47.19" cy="102.82" fill="#d0d8dc" opacity=".2" rx="4.9" ry="2.4" transform="matrix(.8984 -.4392 .4392 .8984 -40.3652 31.174)"/><ellipse cx="59.72" cy="104.49" fill="#b0bec5" opacity=".6" rx="4.9" ry="2.4" transform="matrix(.8984 -.4392 .4392 .8984 -39.8241 36.8463)"/><ellipse cx="35.73" cy="100.7" fill="#d0d8dc" opacity=".2" rx="4.9" ry="2.4" transform="matrix(.6785 -.7346 .7346 .6785 -62.4897 58.6261)"/><ellipse cx="16.87" cy="87.32" fill="#d0d8dc" opacity=".2" rx="4.9" ry="2.4" transform="matrix(.6785 -.7346 .7346 .6785 -58.7237 40.4649)"/><ellipse cx="21.81" cy="95.7" fill="#d0d8dc" opacity=".2" rx="4.7" ry="2.5" transform="matrix(.9749 -.2226 .2226 .9749 -20.7555 7.2553)"/><ellipse cx="29.81" cy="84.3" fill="#d0d8dc" opacity=".2" rx="5" ry="2.4" transform="matrix(.7958 -.6055 .6055 .7958 -44.9582 35.2631)"/><ellipse cx="48.8" cy="86.78" fill="#d0d8dc" opacity=".2" rx="3" ry="4" transform="matrix(.834 -.5518 .5518 .834 -39.7831 41.3316)"/><ellipse cx="34.51" cy="92" fill="#d0d8dc" opacity=".2" rx="4.9" ry="2.4" transform="matrix(.9102 -.4143 .4143 .9102 -35.0121 22.5647)"/><ellipse cx="50.3" cy="91.6" fill="#d0d8dc" opacity=".2" rx="4.6" ry="2.6" transform="matrix(.9903 -.1389 .1389 .9903 -12.2357 7.8749)"/><path d="m115.9 104.9s-8.2-8.7-13.6-18.7-29.1-37.2-69.5-26.1c-14.6 4-20.5 9.1-23.9 12.7-2.2 2.4-3.8 5-4.4 7.3 12.2-6.6 24.8-3.8 35.3 1.3 21.2 10.2 41.7 22.8 65.9 27.2 7.3-1.1 10.2-3.7 10.2-3.7z" fill="url(#e)"/><path d="m4.4 80.1c-1 3.5.3 6.1 4.5 5.3 7-1.2 11.5-5.8 21.8-2.6s36.9 21.1 54.6 24.6c8.9 1.8 15.5 1.7 20.3 1.1-41.6-11.2-42.8-18.3-64.8-28.7-11.8-5.5-29.5-5-36.4.3z" fill="#cb2027"/><g fill="#a31e22" opacity=".6"><path d="m17.6 82.9c.2 0 1.6-.6 1-1.2-2.9-3.3-2.5-6.7-.5-9.8-.4-.5-.7-1.1-.9-1.7-3.1 4.2-3.8 13.1.4 12.7z" opacity=".6"/><path d="m37.4 59.3c-1.3 1-2.6 1.8-4 2.5-1.4.1-2.9.2-4.3.3 1.2-.5 2.3-1 3.5-1.6.1 0 .2-.1.3-.1 1.5-.5 3-.8 4.5-1.1z" opacity=".6"/><path d="m28 64.2c1.9-.8 3.6-1.6 5.3-2.4-1.4.1-2.9.2-4.3.3-4.3 1.9-8.6 3.8-11.7 7.9l-.1.1c.3.7.6 1.2.9 1.7 2.2-3.1 6.1-5.9 9.9-7.6z" opacity=".6"/><path d="m46.9 67.4c5.5-2.2 10.5-4.3 15.2-7.8-.9 0-1.8-.1-2.8-.1-3.1 2.2-6.5 3.8-10 5.2-2.8 1.1-6.3 1-8.8 2.8-2.3 1.6-3.3 4.7-4.1 7 .6.2 1.2.4 1.8.6.1-.4.3-.7.5-1.1 1.7-3.7 4.6-5.2 8.2-6.6z" opacity=".6"/><path d="m37.4 85.5c-.7-.3-1.3-.6-1.9-.9-.4-3.2-.3-6.9.9-10.2.6.2 1.2.4 1.8.6-1.4 3.6-1.3 7.1-.8 10.5z" opacity=".6"/><path d="m63 58.9c-.3.2-.6.4-.8.6-.9 0-1.8-.1-2.8-.1.5-.3.9-.6 1.3-1z" opacity=".6"/><path d="m52 89.7c-.2 1.1-.5 2.1-1 3-.4-.2-.8-.4-1.1-.6 1.1-1.9 1.1-3.6 1.1-5.4h.8.3c0 1 .1 1.9-.1 3z" opacity=".6"/><path d="m78.8 64.5c-.7.6-1.3 1.1-2 1.6-.7-.2-1.4-.5-2.1-.7.9-.5 1.8-1 2.7-1.7.4.3.9.5 1.4.8z" opacity=".6"/><path d="m51.1 82c-.3 1.8-.2 3.3-.2 4.7.3-.1.7-.1 1.1 0v-.1c-.1-1.7 0-3.4.3-4.9-.4 0-.8-.1-1.1-.1 0 .1 0 .2-.1.4z" opacity=".6"/><path d="m57.1 74.1c5.9-4.9 13.4-3.8 19.7-8-.7-.2-1.4-.5-2.1-.7-5.8 2.9-14.7 2.8-20 7.3-3 2.5-2.7 5.3-3.5 8.8.4 0 .8.1 1.1.1.6-2.7 2-5.2 4.8-7.5z" opacity=".6"/><g opacity=".6"><path d="m69.2 92.1c.7 0 1.3 0 1.9.1-.6-1.9-.3-3.9 1-6.1-.7 0-1.4.1-2.2.1-1 2.2-1.3 4.1-.7 5.9z" opacity=".6"/><path d="m73 84.8c2.7-3.5 6.6-3.9 10.3-5.2 2.4-.8 4.6-1.9 6.6-3.2-.5-.4-1.1-.8-1.7-1.2-2.9 1.8-6 3-9.6 4.1-3.5 1.1-6 2.2-8.1 5.6-.3.4-.5.8-.7 1.2.7 0 1.4-.1 2.2-.1.4-.3.6-.8 1-1.2z" opacity=".6"/><path d="m92.7 74.5c-.9.7-1.8 1.4-2.8 2-.5-.4-1.1-.8-1.6-1.2 1-.6 2-1.3 3-2.1.5.4.9.8 1.4 1.3z" opacity=".6"/><path d="m70.1 102.1c-.6-.2-1.2-.5-1.8-.8.7-2.7 3.4-4.7 1.6-7.8-.3-.5-.5-1-.7-1.5.6 0 1.3 0 1.9.1.2.5.3.9.6 1.4.3.6.8 1 .9 1.8.4 2.4-1.8 4.6-2.5 6.8z" opacity=".8"/></g><path d="m87.9 108c-.6-.1-1.3-.2-2-.4 3.3-4.5-.7-6.9-.5-11.5 0-.5.2-1.1.4-1.6.7.2 1.5.3 2.2.5-.7 2-.4 3.6.3 5.8.9 2.7 1 4.9-.4 7.2z" opacity=".6"/><path d="m102.1 86.2c-2.4.5-5.4.8-7.6 1.6-2.5 1-4 2.6-5.4 4.8-.5.9-.9 1.6-1.1 2.3-.7-.2-1.5-.4-2.2-.5.6-1.6 2-3.2 3.3-4.7 2.2-2.6 4.3-3.5 7.5-4.2 1.3-.3 3.2-.4 4.8-.7.2.5.5 1 .7 1.4z" opacity=".6"/></g><path d="m51.4 60.1c27.6 0 44.2 19.6 48.3 27.2 3.8 7 8.8 13.3 11.7 16.7-1.4.6-3.4 1.2-6.2 1.6-1.6.2-3.3.3-5.2.3h-.2c-1 0-2 .5-2.5 1.4 0 .1-.1.1-.1.2-2 2.9-7.6 4.5-15.9 4.5-7.1 0-14-1.1-17.5-1.8-2.6-.5-8.3-2.1-14.8-4-8-2.3-17-5-24.5-6.7-4.1-.9-9.4-4.3-10.9-14.8-.1-.8-.6-1.6-1.3-2.1-.5-.3-1.1-.5-1.7-.5-.2 0-.5 0-.8.1-.6.1-1 .2-1.4.3-.3.1-.6.1-.8.1s-.4 0-.4 0c0-.1 0-.3 0-.5v-.2c0-.4.1-.8.2-1.3.5-1.9 1.9-4.1 3.7-6 3.4-3.6 9.1-8.2 22.6-11.9 5.9-1.8 11.9-2.6 17.7-2.6m0-3c-5.7 0-11.9.8-18.6 2.6-14.6 4-20.5 9.1-23.9 12.7-2.2 2.4-3.8 5-4.4 7.3-.2.8-.3 1.5-.3 2.1-.1 2.2 1 3.7 3.5 3.7.4 0 .8 0 1.3-.1.6-.1 1.1-.2 1.6-.4.8 5.5 3.6 15.1 13.1 17.3 13.8 3.2 33.4 9.6 39.5 10.8 4.7.9 11.5 1.8 18.1 1.8 7.9 0 15.5-1.4 18.5-5.9 0-.1.1-.1.1-.2h.2c2.1 0 3.9-.1 5.6-.4 7.4-1 10.3-3.6 10.3-3.6s-.1-.1-.2-.2c.1-.1.2-.1.2-.1s-8.2-8.7-13.6-18.7c-4.6-8.3-21.9-28.7-51-28.7z" fill="#434343" opacity=".2"/></svg>