<svg width="133" height="40" viewBox="0 0 133 40" fill="none" xmlns="http://www.w3.org/2000/svg">
<rect width="133" height="40" rx="8" fill="white"/>
<path d="M27.99 10C22.47 10 18 14.48 18 20C18 25.52 22.47 30 27.99 30C33.52 30 38 25.52 38 20C38 14.48 33.52 10 27.99 10ZM34.92 16H31.97C31.65 14.75 31.19 13.55 30.59 12.44C32.43 13.07 33.96 14.35 34.92 16ZM28 12.04C28.83 13.24 29.48 14.57 29.91 16H26.09C26.52 14.57 27.17 13.24 28 12.04ZM20.26 22C20.1 21.36 20 20.69 20 20C20 19.31 20.1 18.64 20.26 18H23.64C23.56 18.66 23.5 19.32 23.5 20C23.5 20.68 23.56 21.34 23.64 22H20.26ZM21.08 24H24.03C24.35 25.25 24.81 26.45 25.41 27.56C23.57 26.93 22.04 25.66 21.08 24ZM24.03 16H21.08C22.04 14.34 23.57 13.07 25.41 12.44C24.81 13.55 24.35 14.75 24.03 16ZM28 27.96C27.17 26.76 26.52 25.43 26.09 24H29.91C29.48 25.43 28.83 26.76 28 27.96ZM30.34 22H25.66C25.57 21.34 25.5 20.68 25.5 20C25.5 19.32 25.57 18.65 25.66 18H30.34C30.43 18.65 30.5 19.32 30.5 20C30.5 20.68 30.43 21.34 30.34 22ZM30.59 27.56C31.19 26.45 31.65 25.25 31.97 24H34.92C33.96 25.65 32.43 26.93 30.59 27.56ZM32.36 22C32.44 21.34 32.5 20.68 32.5 20C32.5 19.32 32.44 18.66 32.36 18H35.74C35.9 18.64 36 19.31 36 20C36 20.69 35.9 21.36 35.74 22H32.36Z" fill="black"/>
<path d="M53.1064 15.0469V25H51.4043V15.0469H53.1064ZM56.2305 15.0469V16.4141H48.3076V15.0469H56.2305ZM58.541 19.0117V25H56.8936V17.6035H58.4658L58.541 19.0117ZM60.8037 17.5557L60.79 19.0869C60.6898 19.0687 60.5804 19.055 60.4619 19.0459C60.348 19.0368 60.234 19.0322 60.1201 19.0322C59.8376 19.0322 59.5892 19.0732 59.375 19.1553C59.1608 19.2327 58.9808 19.3467 58.835 19.4971C58.6937 19.6429 58.5843 19.8206 58.5068 20.0303C58.4294 20.2399 58.3838 20.4746 58.3701 20.7344L57.9941 20.7617C57.9941 20.2969 58.0397 19.8662 58.1309 19.4697C58.222 19.0732 58.3587 18.7246 58.541 18.4238C58.7279 18.123 58.9603 17.8883 59.2383 17.7197C59.5208 17.5511 59.8467 17.4668 60.2158 17.4668C60.3161 17.4668 60.4232 17.4759 60.5371 17.4941C60.6556 17.5124 60.7445 17.5329 60.8037 17.5557ZM64.1055 24.1934L66.1152 17.6035H67.8789L64.9121 26.1279C64.8438 26.3102 64.7549 26.5085 64.6455 26.7227C64.5361 26.9368 64.3926 27.1396 64.2148 27.3311C64.0417 27.527 63.8252 27.6842 63.5654 27.8027C63.3057 27.9258 62.9912 27.9873 62.6221 27.9873C62.4762 27.9873 62.335 27.9736 62.1982 27.9463C62.0661 27.9235 61.9408 27.8984 61.8223 27.8711L61.8154 26.6133C61.861 26.6178 61.9157 26.6224 61.9795 26.627C62.0479 26.6315 62.1025 26.6338 62.1436 26.6338C62.417 26.6338 62.6449 26.5996 62.8271 26.5312C63.0094 26.4674 63.1576 26.3626 63.2715 26.2168C63.39 26.071 63.4902 25.875 63.5723 25.6289L64.1055 24.1934ZM62.9707 17.6035L64.7275 23.1406L65.0215 24.877L63.8799 25.1709L61.1934 17.6035H62.9707ZM71.9941 21.3838V21.2266C71.9941 20.6934 72.0716 20.1989 72.2266 19.7432C72.3815 19.2829 72.6048 18.8841 72.8965 18.5469C73.1927 18.2051 73.5527 17.9408 73.9766 17.7539C74.4049 17.5625 74.888 17.4668 75.4258 17.4668C75.9681 17.4668 76.4512 17.5625 76.875 17.7539C77.3034 17.9408 77.6657 18.2051 77.9619 18.5469C78.2581 18.8841 78.4837 19.2829 78.6387 19.7432C78.7936 20.1989 78.8711 20.6934 78.8711 21.2266V21.3838C78.8711 21.917 78.7936 22.4115 78.6387 22.8672C78.4837 23.3229 78.2581 23.7217 77.9619 24.0635C77.6657 24.4007 77.3057 24.665 76.8818 24.8564C76.458 25.0433 75.9772 25.1367 75.4395 25.1367C74.8971 25.1367 74.4118 25.0433 73.9834 24.8564C73.5596 24.665 73.1995 24.4007 72.9033 24.0635C72.6071 23.7217 72.3815 23.3229 72.2266 22.8672C72.0716 22.4115 71.9941 21.917 71.9941 21.3838ZM73.6416 21.2266V21.3838C73.6416 21.7165 73.6758 22.0309 73.7441 22.3271C73.8125 22.6234 73.9196 22.8831 74.0654 23.1064C74.2113 23.3298 74.3981 23.5052 74.626 23.6328C74.8538 23.7604 75.125 23.8242 75.4395 23.8242C75.7448 23.8242 76.0091 23.7604 76.2324 23.6328C76.4603 23.5052 76.6471 23.3298 76.793 23.1064C76.9388 22.8831 77.0459 22.6234 77.1143 22.3271C77.1872 22.0309 77.2236 21.7165 77.2236 21.3838V21.2266C77.2236 20.8984 77.1872 20.5885 77.1143 20.2969C77.0459 20.0007 76.9365 19.7386 76.7861 19.5107C76.6403 19.2829 76.4535 19.1051 76.2256 18.9775C76.0023 18.8454 75.7357 18.7793 75.4258 18.7793C75.1159 18.7793 74.847 18.8454 74.6191 18.9775C74.3958 19.1051 74.2113 19.2829 74.0654 19.5107C73.9196 19.7386 73.8125 20.0007 73.7441 20.2969C73.6758 20.5885 73.6416 20.8984 73.6416 21.2266ZM81.8857 19.1826V25H80.2383V17.6035H81.79L81.8857 19.1826ZM81.5918 21.0283L81.0586 21.0215C81.0632 20.4974 81.1361 20.0166 81.2773 19.5791C81.4232 19.1416 81.6237 18.7656 81.8789 18.4512C82.1387 18.1367 82.4486 17.8952 82.8086 17.7266C83.1686 17.5534 83.5697 17.4668 84.0117 17.4668C84.3672 17.4668 84.6885 17.5169 84.9756 17.6172C85.2673 17.7129 85.5156 17.8701 85.7207 18.0889C85.9303 18.3076 86.0898 18.5924 86.1992 18.9434C86.3086 19.2897 86.3633 19.7158 86.3633 20.2217V25H84.709V20.2148C84.709 19.8594 84.6566 19.5791 84.5518 19.374C84.4515 19.1644 84.3034 19.0163 84.1074 18.9297C83.916 18.8385 83.6768 18.793 83.3896 18.793C83.1071 18.793 82.8542 18.8522 82.6309 18.9707C82.4076 19.0892 82.2184 19.251 82.0635 19.4561C81.9131 19.6611 81.7969 19.8981 81.7148 20.167C81.6328 20.4359 81.5918 20.723 81.5918 21.0283ZM93.541 23.3594L95.25 17.6035H96.3027L96.0156 19.3262L94.293 25H93.3496L93.541 23.3594ZM92.5361 17.6035L93.8691 23.3867L93.9785 25H92.9258L90.9229 17.6035H92.5361ZM97.9023 23.3184L99.1943 17.6035H100.801L98.8047 25H97.752L97.9023 23.3184ZM96.4805 17.6035L98.1689 23.291L98.3809 25H97.4375L95.6943 19.3193L95.4072 17.6035H96.4805ZM105.183 25.1367C104.636 25.1367 104.141 25.0479 103.699 24.8701C103.262 24.6878 102.888 24.4349 102.578 24.1113C102.273 23.7878 102.038 23.4072 101.874 22.9697C101.71 22.5322 101.628 22.0605 101.628 21.5547V21.2812C101.628 20.7025 101.712 20.1784 101.881 19.709C102.049 19.2396 102.284 18.8385 102.585 18.5059C102.886 18.1686 103.241 17.9111 103.651 17.7334C104.062 17.5557 104.506 17.4668 104.984 17.4668C105.513 17.4668 105.976 17.5557 106.372 17.7334C106.769 17.9111 107.097 18.1618 107.356 18.4854C107.621 18.8044 107.817 19.1849 107.944 19.627C108.076 20.069 108.143 20.5566 108.143 21.0898V21.7939H102.428V20.6113H106.516V20.4814C106.507 20.1852 106.447 19.9072 106.338 19.6475C106.233 19.3877 106.071 19.1781 105.853 19.0186C105.634 18.859 105.342 18.7793 104.978 18.7793C104.704 18.7793 104.46 18.8385 104.246 18.957C104.036 19.071 103.861 19.2373 103.72 19.4561C103.578 19.6748 103.469 19.9391 103.392 20.249C103.319 20.5544 103.282 20.8984 103.282 21.2812V21.5547C103.282 21.8783 103.326 22.179 103.412 22.457C103.503 22.7305 103.635 22.9697 103.809 23.1748C103.982 23.3799 104.191 23.5417 104.438 23.6602C104.684 23.7741 104.964 23.8311 105.278 23.8311C105.675 23.8311 106.028 23.7513 106.338 23.5918C106.648 23.4323 106.917 23.2067 107.145 22.915L108.013 23.7559C107.853 23.9883 107.646 24.2116 107.391 24.4258C107.135 24.6354 106.823 24.8063 106.454 24.9385C106.09 25.0706 105.666 25.1367 105.183 25.1367ZM109.435 14.5H111.082V23.4209L110.925 25H109.435V14.5ZM115.908 21.2334V21.377C115.908 21.9238 115.847 22.4274 115.724 22.8877C115.605 23.3434 115.423 23.7399 115.177 24.0771C114.935 24.4144 114.634 24.6764 114.274 24.8633C113.919 25.0456 113.507 25.1367 113.037 25.1367C112.577 25.1367 112.176 25.0501 111.834 24.877C111.492 24.7038 111.205 24.4577 110.973 24.1387C110.745 23.8197 110.56 23.4391 110.419 22.9971C110.278 22.555 110.177 22.0674 110.118 21.5342V21.0762C110.177 20.5384 110.278 20.0508 110.419 19.6133C110.56 19.1712 110.745 18.7907 110.973 18.4717C111.205 18.1481 111.49 17.8997 111.827 17.7266C112.169 17.5534 112.568 17.4668 113.023 17.4668C113.497 17.4668 113.914 17.5579 114.274 17.7402C114.639 17.9225 114.942 18.1823 115.184 18.5195C115.425 18.8522 115.605 19.2487 115.724 19.709C115.847 20.1693 115.908 20.6774 115.908 21.2334ZM114.261 21.377V21.2334C114.261 20.9007 114.233 20.5885 114.179 20.2969C114.124 20.0007 114.033 19.7409 113.905 19.5176C113.782 19.2943 113.614 19.1188 113.399 18.9912C113.19 18.859 112.928 18.793 112.613 18.793C112.322 18.793 112.071 18.8431 111.861 18.9434C111.652 19.0436 111.476 19.1803 111.335 19.3535C111.194 19.5267 111.082 19.7272 111 19.9551C110.923 20.1829 110.87 20.429 110.843 20.6934V21.9307C110.884 22.2725 110.97 22.5869 111.103 22.874C111.239 23.1566 111.431 23.3844 111.677 23.5576C111.923 23.7262 112.24 23.8105 112.627 23.8105C112.932 23.8105 113.19 23.749 113.399 23.626C113.609 23.5029 113.775 23.332 113.898 23.1133C114.026 22.89 114.117 22.6302 114.172 22.334C114.231 22.0378 114.261 21.7188 114.261 21.377Z" fill="black"/>
</svg>
