<svg width="24" height="24" viewBox="0 0 24 24" fill="none" xmlns="http://www.w3.org/2000/svg">
<path d="M15.4976 12.0223C15.4981 12.2559 15.4167 12.4824 15.2676 12.6623L10.2676 18.6623C9.91417 19.0875 9.28289 19.1457 8.85763 18.7923C8.43237 18.4388 8.37417 17.8075 8.72763 17.3823L13.2076 12.0223L8.88763 6.66228C8.71986 6.45569 8.64136 6.19074 8.66952 5.9261C8.69767 5.66145 8.83015 5.41895 9.03763 5.25228C9.24549 5.06714 9.52111 4.97702 9.79819 5.00359C10.0753 5.03016 10.3287 5.17102 10.4976 5.39228L15.3276 11.3923C15.4531 11.5774 15.513 11.7992 15.4976 12.0223Z" fill="#8E33FF"/>
</svg>
