<svg width="33" height="32" viewBox="0 0 33 32" fill="none" xmlns="http://www.w3.org/2000/svg">
<path fillRule="evenodd" clipRule="evenodd" d="M16.2002 4C12.941 4 12.533 4.0136 11.253 4.072C9.9754 4.1304 9.1026 4.3336 8.3394 4.6304C7.5394 4.9312 6.8138 5.4032 6.2138 6.0144C5.60357 6.61371 5.13128 7.3388 4.8298 8.1392C4.5346 8.9024 4.3306 9.776 4.2722 11.0536C4.2146 12.3328 4.2002 12.74 4.2002 16C4.2002 19.26 4.2138 19.6672 4.2722 20.9472C4.3306 22.2248 4.5338 23.0976 4.8306 23.8608C5.1314 24.6608 5.6034 25.3864 6.2146 25.9864C6.81392 26.5966 7.539 27.0689 8.3394 27.3704C9.1026 27.6664 9.9754 27.8696 11.253 27.928C12.533 27.9864 12.941 28 16.2002 28C19.4594 28 19.8674 27.9864 21.1474 27.928C22.425 27.8696 23.2978 27.6664 24.061 27.3696C24.861 27.0688 25.5866 26.5968 26.1866 25.9856C26.7968 25.3863 27.2691 24.6612 27.5706 23.8608C27.8666 23.0976 28.0698 22.2248 28.1282 20.9472C28.1866 19.6672 28.2002 19.2592 28.2002 16C28.2002 12.7408 28.1866 12.3328 28.1282 11.0528C28.0698 9.7752 27.8666 8.9024 27.5698 8.1392C27.2685 7.33845 26.7962 6.61306 26.1858 6.0136C25.5865 5.40338 24.8614 4.93109 24.061 4.6296C23.2978 4.3344 22.4242 4.1304 21.1466 4.072C19.8674 4.0144 19.4602 4 16.2002 4ZM16.2002 6.1624C19.4042 6.1624 19.7842 6.1744 21.0498 6.232C22.2194 6.2856 22.8546 6.48 23.2778 6.6456C23.8378 6.8624 24.2378 7.1232 24.6578 7.5424C25.0778 7.9624 25.3378 8.3624 25.5546 8.9224C25.7194 9.3456 25.9146 9.9808 25.9682 11.1504C26.0258 12.416 26.0378 12.796 26.0378 16C26.0378 19.204 26.0258 19.584 25.9682 20.8496C25.9146 22.0192 25.7202 22.6544 25.5546 23.0776C25.3625 23.5988 25.0561 24.0704 24.6578 24.4576C24.2707 24.856 23.7991 25.1624 23.2778 25.3544C22.8546 25.5192 22.2194 25.7144 21.0498 25.768C19.7842 25.8256 19.405 25.8376 16.2002 25.8376C12.9954 25.8376 12.6162 25.8256 11.3506 25.768C10.181 25.7144 9.5458 25.52 9.1226 25.3544C8.60136 25.1623 8.1298 24.8559 7.7426 24.4576C7.34434 24.0704 7.0379 23.5988 6.8458 23.0776C6.681 22.6544 6.4858 22.0192 6.4322 20.8496C6.3746 19.584 6.3626 19.204 6.3626 16C6.3626 12.796 6.3746 12.416 6.4322 11.1504C6.4858 9.9808 6.6802 9.3456 6.8458 8.9224C7.0626 8.3624 7.3234 7.9624 7.7426 7.5424C8.12975 7.14404 8.60132 6.83758 9.1226 6.6456C9.5458 6.4808 10.181 6.2856 11.3506 6.232C12.6162 6.1744 12.9962 6.1624 16.2002 6.1624Z" fill="white"/>
<path fillRule="evenodd" clipRule="evenodd" d="M16.2002 20.0042C15.6744 20.0042 15.1537 19.9006 14.668 19.6994C14.1822 19.4982 13.7408 19.2033 13.369 18.8315C12.9972 18.4597 12.7022 18.0183 12.501 17.5325C12.2998 17.0467 12.1962 16.526 12.1962 16.0002C12.1962 15.4744 12.2998 14.9537 12.501 14.4679C12.7022 13.9822 12.9972 13.5408 13.369 13.169C13.7408 12.7971 14.1822 12.5022 14.668 12.301C15.1537 12.0998 15.6744 11.9962 16.2002 11.9962C17.2622 11.9962 18.2806 12.4181 19.0315 13.169C19.7824 13.9198 20.2042 14.9383 20.2042 16.0002C20.2042 17.0621 19.7824 18.0806 19.0315 18.8315C18.2806 19.5824 17.2622 20.0042 16.2002 20.0042ZM16.2002 9.83221C14.5644 9.83221 12.9955 10.482 11.8388 11.6388C10.6821 12.7955 10.0322 14.3644 10.0322 16.0002C10.0322 17.6361 10.6821 19.2049 11.8388 20.3616C12.9955 21.5184 14.5644 22.1682 16.2002 22.1682C17.8361 22.1682 19.4049 21.5184 20.5617 20.3616C21.7184 19.2049 22.3682 17.6361 22.3682 16.0002C22.3682 14.3644 21.7184 12.7955 20.5617 11.6388C19.4049 10.482 17.8361 9.83221 16.2002 9.83221ZM24.1626 9.72021C24.1626 10.1069 24.009 10.4777 23.7356 10.7512C23.4622 11.0246 23.0913 11.1782 22.7046 11.1782C22.3179 11.1782 21.9471 11.0246 21.6737 10.7512C21.4002 10.4777 21.2466 10.1069 21.2466 9.72021C21.2466 9.33352 21.4002 8.96267 21.6737 8.68925C21.9471 8.41582 22.3179 8.26221 22.7046 8.26221C23.0913 8.26221 23.4622 8.41582 23.7356 8.68925C24.009 8.96267 24.1626 9.33352 24.1626 9.72021Z" fill="white"/>
</svg>
