
<svg width="24" height="35" viewBox="0 0 24 35" fill="none" xmlns="http://www.w3.org/2000/svg">
<g clip-path="url(#clip0_2174_24044)">
<path d="M23.8151 25.2423L17.2992 19.1573C15.3122 17.3635 15.0516 15.7122 15.9415 13.573C16.1079 13.1732 16.3057 12.7874 16.5244 12.4142L23.7162 0.185303L14.4652 11.668C14.1465 12.0643 13.8021 12.4386 13.4264 12.7827C11.9594 14.1293 10.5377 14.6241 8.61938 13.9427C8.19824 13.7932 7.79456 13.5962 7.41065 13.3668L0.185059 9.04325L6.47066 14.8211C8.32505 16.6184 9.46979 18.4528 8.61589 20.6881C8.49955 20.9917 8.34948 21.2803 8.17614 21.5561L0.283944 34.1002L10.1713 22.2467C11.7721 20.3173 13.1146 19.6116 15.2726 20.3231C15.7659 20.4865 16.2382 20.7078 16.6837 20.9744L23.8151 25.2423Z" fill="black"/>
</g>
<defs>
<clipPath id="clip0_2174_24044">
<rect width="24" height="34.2857" fill="white"/>
</clipPath>
</defs>
</svg>
