<svg width="33" height="32" viewBox="0 0 33 32" fill="none" xmlns="http://www.w3.org/2000/svg">
<path fillRule="evenodd" clipRule="evenodd" d="M26.9893 7.21961C28.1361 7.52769 29.0432 8.43485 29.3513 9.58161C29.9162 11.6698 29.9333 16.0001 29.9333 16.0001C29.9333 16.0001 29.9333 20.3476 29.3684 22.4186C29.0604 23.5654 28.1532 24.4725 27.0064 24.7806C24.9354 25.3454 16.5999 25.3454 16.5999 25.3454C16.5999 25.3454 8.26446 25.3454 6.19343 24.7806C5.04666 24.4725 4.13952 23.5654 3.83143 22.4186C3.2666 20.3304 3.2666 16.0001 3.2666 16.0001C3.2666 16.0001 3.2666 11.6698 3.81431 9.59873C4.1224 8.45196 5.02955 7.54482 6.17631 7.23673C8.24735 6.6719 16.5828 6.65479 16.5828 6.65479C16.5828 6.65479 24.9183 6.65479 26.9893 7.21961ZM20.8447 16.0001L13.9298 20.0052V11.995L20.8447 16.0001Z" fill="white"/>
</svg>
